<?xml version="1.0" encoding="UTF-8" standalone="no"?>
<!DOCTYPE svg PUBLIC "-//W3C//DTD SVG 1.1//EN"
 "http://www.w3.org/Graphics/SVG/1.1/DTD/svg11.dtd">
<!-- Generated by graphviz version 2.40.1 (20161225.0304)
 -->
<!-- Title: dependencies Pages: 1 -->
<svg width="504pt" height="211pt"
 viewBox="0.00 0.00 504.00 211.00" xmlns="http://www.w3.org/2000/svg" xmlns:xlink="http://www.w3.org/1999/xlink">
<g id="graph0" class="graph" transform="scale(1 1) rotate(0) translate(4 207)">
<title>dependencies</title>
<polygon fill="#ffffff" stroke="transparent" points="-4,4 -4,-207 500,-207 500,4 -4,4"/>
<text text-anchor="start" x="227.0091" y="-42.4" font-family="sans-serif" font-weight="bold" font-size="14.00" fill="#000000">Legend</text>
<polygon fill="#ffffb3" stroke="transparent" points="14,-10 14,-30 34,-30 34,-10 14,-10"/>
<text text-anchor="start" x="37.629" y="-15.4" font-family="sans-serif" font-size="14.00" fill="#000000"> &#160;Declarations</text>
<polygon fill="#8dd3c7" stroke="transparent" points="127,-10 127,-30 147,-30 147,-10 127,-10"/>
<text text-anchor="start" x="150.7251" y="-15.4" font-family="sans-serif" font-size="14.00" fill="#000000"> &#160;Module</text>
<polygon fill="#80b1d3" stroke="transparent" points="213,-10 213,-30 233,-30 233,-10 213,-10"/>
<text text-anchor="start" x="236.7812" y="-15.4" font-family="sans-serif" font-size="14.00" fill="#000000"> &#160;Bootstrap</text>
<polygon fill="#fdb462" stroke="transparent" points="310,-10 310,-30 330,-30 330,-10 310,-10"/>
<text text-anchor="start" x="333.6732" y="-15.4" font-family="sans-serif" font-size="14.00" fill="#000000"> &#160;Providers</text>
<polygon fill="#fb8072" stroke="transparent" points="406,-10 406,-30 426,-30 426,-10 406,-10"/>
<text text-anchor="start" x="429.7258" y="-15.4" font-family="sans-serif" font-size="14.00" fill="#000000"> &#160;Exports</text>
<g id="clust1" class="cluster">
<title>cluster_LeaderboardListModule</title>
<polygon fill="none" stroke="#000000" stroke-dasharray="1,5" points="40,-70 40,-195 456,-195 456,-70 40,-70"/>
</g>
<g id="clust2" class="cluster">
<title>cluster_LeaderboardListModule_declarations</title>
<polygon fill="none" stroke="#000000" points="296,-78 296,-130 448,-130 448,-78 296,-78"/>
</g>
<g id="clust4" class="cluster">
<title>cluster_LeaderboardListModule_imports</title>
<polygon fill="none" stroke="#000000" points="48,-78 48,-130 288,-130 288,-78 48,-78"/>
</g>
<!-- LeaderboardListPage -->
<g id="node1" class="node">
<title>LeaderboardListPage</title>
<polygon fill="#ffffb3" stroke="#000000" points="439.7227,-122 304.2773,-122 304.2773,-86 439.7227,-86 439.7227,-122"/>
<text text-anchor="middle" x="372" y="-99.8" font-family="Times,serif" font-size="14.00" fill="#000000">LeaderboardListPage</text>
</g>
<!-- LeaderboardListModule -->
<g id="node2" class="node">
<title>LeaderboardListModule</title>
<polygon fill="#8dd3c7" stroke="#000000" points="346.0604,-187 343.0604,-191 322.0604,-191 319.0604,-187 193.9396,-187 193.9396,-151 346.0604,-151 346.0604,-187"/>
<text text-anchor="middle" x="270" y="-164.8" font-family="Times,serif" font-size="14.00" fill="#000000">LeaderboardListModule</text>
</g>
<!-- LeaderboardListPage&#45;&gt;LeaderboardListModule -->
<g id="edge1" class="edge">
<title>LeaderboardListPage&#45;&gt;LeaderboardListModule</title>
<path fill="none" stroke="#000000" d="M325.0845,-122.1061C325.0845,-122.1061 325.0845,-140.991 325.0845,-140.991"/>
<polygon fill="#000000" stroke="#000000" points="321.5846,-140.9909 325.0845,-150.991 328.5846,-140.991 321.5846,-140.9909"/>
</g>
<!-- LeaderboardListPageRoutingModule -->
<g id="node3" class="node">
<title>LeaderboardListPageRoutingModule</title>
<polygon fill="#8dd3c7" stroke="#000000" points="280.3903,-122 277.3903,-126 256.3903,-126 253.3903,-122 55.6097,-122 55.6097,-86 280.3903,-86 280.3903,-122"/>
<text text-anchor="middle" x="168" y="-99.8" font-family="Times,serif" font-size="14.00" fill="#000000">LeaderboardListPageRoutingModule</text>
</g>
<!-- LeaderboardListPageRoutingModule&#45;&gt;LeaderboardListModule -->
<g id="edge2" class="edge">
<title>LeaderboardListPageRoutingModule&#45;&gt;LeaderboardListModule</title>
<path fill="none" stroke="#000000" d="M237.0824,-122.1061C237.0824,-122.1061 237.0824,-140.991 237.0824,-140.991"/>
<polygon fill="#000000" stroke="#000000" points="233.5825,-140.9909 237.0824,-150.991 240.5825,-140.991 233.5825,-140.9909"/>
</g>
</g>
</svg>
