<?xml version="1.0" encoding="UTF-8" standalone="no"?>
<!DOCTYPE svg PUBLIC "-//W3C//DTD SVG 1.1//EN"
 "http://www.w3.org/Graphics/SVG/1.1/DTD/svg11.dtd">
<!-- Generated by graphviz version 2.40.1 (20161225.0304)
 -->
<!-- Title: dependencies Pages: 1 -->
<svg width="504pt" height="211pt"
 viewBox="0.00 0.00 504.00 211.00" xmlns="http://www.w3.org/2000/svg" xmlns:xlink="http://www.w3.org/1999/xlink">
<g id="graph0" class="graph" transform="scale(1 1) rotate(0) translate(4 207)">
<title>dependencies</title>
<polygon fill="#ffffff" stroke="transparent" points="-4,4 -4,-207 500,-207 500,4 -4,4"/>
<text text-anchor="start" x="227.0091" y="-42.4" font-family="sans-serif" font-weight="bold" font-size="14.00" fill="#000000">Legend</text>
<polygon fill="#ffffb3" stroke="transparent" points="14,-10 14,-30 34,-30 34,-10 14,-10"/>
<text text-anchor="start" x="37.629" y="-15.4" font-family="sans-serif" font-size="14.00" fill="#000000"> &#160;Declarations</text>
<polygon fill="#8dd3c7" stroke="transparent" points="127,-10 127,-30 147,-30 147,-10 127,-10"/>
<text text-anchor="start" x="150.7251" y="-15.4" font-family="sans-serif" font-size="14.00" fill="#000000"> &#160;Module</text>
<polygon fill="#80b1d3" stroke="transparent" points="213,-10 213,-30 233,-30 233,-10 213,-10"/>
<text text-anchor="start" x="236.7812" y="-15.4" font-family="sans-serif" font-size="14.00" fill="#000000"> &#160;Bootstrap</text>
<polygon fill="#fdb462" stroke="transparent" points="310,-10 310,-30 330,-30 330,-10 310,-10"/>
<text text-anchor="start" x="333.6732" y="-15.4" font-family="sans-serif" font-size="14.00" fill="#000000"> &#160;Providers</text>
<polygon fill="#fb8072" stroke="transparent" points="406,-10 406,-30 426,-30 426,-10 406,-10"/>
<text text-anchor="start" x="429.7258" y="-15.4" font-family="sans-serif" font-size="14.00" fill="#000000"> &#160;Exports</text>
<g id="clust1" class="cluster">
<title>cluster_PlayerDetailModule</title>
<polygon fill="none" stroke="#000000" stroke-dasharray="1,5" points="62,-70 62,-195 434,-195 434,-70 62,-70"/>
</g>
<g id="clust2" class="cluster">
<title>cluster_PlayerDetailModule_declarations</title>
<polygon fill="none" stroke="#000000" points="296,-78 296,-130 426,-130 426,-78 296,-78"/>
</g>
<g id="clust4" class="cluster">
<title>cluster_PlayerDetailModule_imports</title>
<polygon fill="none" stroke="#000000" points="70,-78 70,-130 288,-130 288,-78 70,-78"/>
</g>
<!-- PlayerDetailPage -->
<g id="node1" class="node">
<title>PlayerDetailPage</title>
<polygon fill="#ffffb3" stroke="#000000" points="417.6825,-122 304.3175,-122 304.3175,-86 417.6825,-86 417.6825,-122"/>
<text text-anchor="middle" x="361" y="-99.8" font-family="Times,serif" font-size="14.00" fill="#000000">PlayerDetailPage</text>
</g>
<!-- PlayerDetailModule -->
<g id="node2" class="node">
<title>PlayerDetailModule</title>
<polygon fill="#8dd3c7" stroke="#000000" points="334.5213,-187 331.5213,-191 310.5213,-191 307.5213,-187 205.4787,-187 205.4787,-151 334.5213,-151 334.5213,-187"/>
<text text-anchor="middle" x="270" y="-164.8" font-family="Times,serif" font-size="14.00" fill="#000000">PlayerDetailModule</text>
</g>
<!-- PlayerDetailPage&#45;&gt;PlayerDetailModule -->
<g id="edge1" class="edge">
<title>PlayerDetailPage&#45;&gt;PlayerDetailModule</title>
<path fill="none" stroke="#000000" d="M319.5845,-122.1061C319.5845,-122.1061 319.5845,-140.991 319.5845,-140.991"/>
<polygon fill="#000000" stroke="#000000" points="316.0846,-140.9909 319.5845,-150.991 323.0846,-140.991 316.0846,-140.9909"/>
</g>
<!-- PlayerDetailPageRoutingModule -->
<g id="node3" class="node">
<title>PlayerDetailPageRoutingModule</title>
<polygon fill="#8dd3c7" stroke="#000000" points="279.8501,-122 276.8501,-126 255.8501,-126 252.8501,-122 78.1499,-122 78.1499,-86 279.8501,-86 279.8501,-122"/>
<text text-anchor="middle" x="179" y="-99.8" font-family="Times,serif" font-size="14.00" fill="#000000">PlayerDetailPageRoutingModule</text>
</g>
<!-- PlayerDetailPageRoutingModule&#45;&gt;PlayerDetailModule -->
<g id="edge2" class="edge">
<title>PlayerDetailPageRoutingModule&#45;&gt;PlayerDetailModule</title>
<path fill="none" stroke="#000000" d="M242.5824,-122.1061C242.5824,-122.1061 242.5824,-140.991 242.5824,-140.991"/>
<polygon fill="#000000" stroke="#000000" points="239.0825,-140.9909 242.5824,-150.991 246.0825,-140.991 239.0825,-140.9909"/>
</g>
</g>
</svg>
