<?xml version="1.0" encoding="UTF-8" standalone="no"?>
<!DOCTYPE svg PUBLIC "-//W3C//DTD SVG 1.1//EN"
 "http://www.w3.org/Graphics/SVG/1.1/DTD/svg11.dtd">
<!-- Generated by graphviz version 2.40.1 (20161225.0304)
 -->
<!-- Title: dependencies Pages: 1 -->
<svg width="504pt" height="211pt"
 viewBox="0.00 0.00 504.00 211.00" xmlns="http://www.w3.org/2000/svg" xmlns:xlink="http://www.w3.org/1999/xlink">
<g id="graph0" class="graph" transform="scale(1 1) rotate(0) translate(4 207)">
<title>dependencies</title>
<polygon fill="#ffffff" stroke="transparent" points="-4,4 -4,-207 500,-207 500,4 -4,4"/>
<text text-anchor="start" x="227.0091" y="-42.4" font-family="sans-serif" font-weight="bold" font-size="14.00" fill="#000000">Legend</text>
<polygon fill="#ffffb3" stroke="transparent" points="14,-10 14,-30 34,-30 34,-10 14,-10"/>
<text text-anchor="start" x="37.629" y="-15.4" font-family="sans-serif" font-size="14.00" fill="#000000"> &#160;Declarations</text>
<polygon fill="#8dd3c7" stroke="transparent" points="127,-10 127,-30 147,-30 147,-10 127,-10"/>
<text text-anchor="start" x="150.7251" y="-15.4" font-family="sans-serif" font-size="14.00" fill="#000000"> &#160;Module</text>
<polygon fill="#80b1d3" stroke="transparent" points="213,-10 213,-30 233,-30 233,-10 213,-10"/>
<text text-anchor="start" x="236.7812" y="-15.4" font-family="sans-serif" font-size="14.00" fill="#000000"> &#160;Bootstrap</text>
<polygon fill="#fdb462" stroke="transparent" points="310,-10 310,-30 330,-30 330,-10 310,-10"/>
<text text-anchor="start" x="333.6732" y="-15.4" font-family="sans-serif" font-size="14.00" fill="#000000"> &#160;Providers</text>
<polygon fill="#fb8072" stroke="transparent" points="406,-10 406,-30 426,-30 426,-10 406,-10"/>
<text text-anchor="start" x="429.7258" y="-15.4" font-family="sans-serif" font-size="14.00" fill="#000000"> &#160;Exports</text>
<g id="clust1" class="cluster">
<title>cluster_SignUpModule</title>
<polygon fill="none" stroke="#000000" stroke-dasharray="1,5" points="93,-70 93,-195 403,-195 403,-70 93,-70"/>
</g>
<g id="clust2" class="cluster">
<title>cluster_SignUpModule_declarations</title>
<polygon fill="none" stroke="#000000" points="297,-78 297,-130 395,-130 395,-78 297,-78"/>
</g>
<g id="clust4" class="cluster">
<title>cluster_SignUpModule_imports</title>
<polygon fill="none" stroke="#000000" points="101,-78 101,-130 289,-130 289,-78 101,-78"/>
</g>
<!-- SignupPage -->
<g id="node1" class="node">
<title>SignupPage</title>
<polygon fill="#ffffb3" stroke="#000000" points="387.3851,-122 304.6149,-122 304.6149,-86 387.3851,-86 387.3851,-122"/>
<text text-anchor="middle" x="346" y="-99.8" font-family="Times,serif" font-size="14.00" fill="#000000">SignupPage</text>
</g>
<!-- SignUpModule -->
<g id="node2" class="node">
<title>SignUpModule</title>
<polygon fill="#8dd3c7" stroke="#000000" points="320.3301,-187 317.3301,-191 296.3301,-191 293.3301,-187 217.6699,-187 217.6699,-151 320.3301,-151 320.3301,-187"/>
<text text-anchor="middle" x="269" y="-164.8" font-family="Times,serif" font-size="14.00" fill="#000000">SignUpModule</text>
</g>
<!-- SignupPage&#45;&gt;SignUpModule -->
<g id="edge1" class="edge">
<title>SignupPage&#45;&gt;SignUpModule</title>
<path fill="none" stroke="#000000" d="M312.3612,-122.1061C312.3612,-122.1061 312.3612,-140.991 312.3612,-140.991"/>
<polygon fill="#000000" stroke="#000000" points="308.8612,-140.9909 312.3612,-150.991 315.8612,-140.991 308.8612,-140.9909"/>
</g>
<!-- SignupPageRoutingModule -->
<g id="node3" class="node">
<title>SignupPageRoutingModule</title>
<polygon fill="#8dd3c7" stroke="#000000" points="280.5532,-122 277.5532,-126 256.5532,-126 253.5532,-122 109.4468,-122 109.4468,-86 280.5532,-86 280.5532,-122"/>
<text text-anchor="middle" x="195" y="-99.8" font-family="Times,serif" font-size="14.00" fill="#000000">SignupPageRoutingModule</text>
</g>
<!-- SignupPageRoutingModule&#45;&gt;SignUpModule -->
<g id="edge2" class="edge">
<title>SignupPageRoutingModule&#45;&gt;SignUpModule</title>
<path fill="none" stroke="#000000" d="M249.3058,-122.1061C249.3058,-122.1061 249.3058,-140.991 249.3058,-140.991"/>
<polygon fill="#000000" stroke="#000000" points="245.8058,-140.9909 249.3058,-150.991 252.8058,-140.991 245.8058,-140.9909"/>
</g>
</g>
</svg>
