<?xml version="1.0" encoding="UTF-8" standalone="no"?>
<svg
   xmlns:dc="http://purl.org/dc/elements/1.1/"
   xmlns:cc="http://creativecommons.org/ns#"
   xmlns:rdf="http://www.w3.org/1999/02/22-rdf-syntax-ns#"
   xmlns:svg="http://www.w3.org/2000/svg"
   xmlns="http://www.w3.org/2000/svg"
   xmlns:sodipodi="http://sodipodi.sourceforge.net/DTD/sodipodi-0.dtd"
   xmlns:inkscape="http://www.inkscape.org/namespaces/inkscape"
   inkscape:export-ydpi="11.972671"
   inkscape:export-xdpi="11.972671"
   inkscape:export-filename="/Users/paolo/Apps/GolfScoringUI/src/assets/icon/favicon.png"
   inkscape:version="1.0beta1 (32d4812, 2019-09-19)"
   sodipodi:docname="appicon.svg"
   id="svg839"
   version="1.1"
   viewBox="0 0 512 512">
  <metadata
     id="metadata845">
    <rdf:RDF>
      <cc:Work
         rdf:about="">
        <dc:format>image/svg+xml</dc:format>
        <dc:type
           rdf:resource="http://purl.org/dc/dcmitype/StillImage" />
        <dc:title></dc:title>
      </cc:Work>
    </rdf:RDF>
  </metadata>
  <defs
     id="defs843" />
  <sodipodi:namedview
     inkscape:current-layer="layer2"
     inkscape:window-maximized="0"
     inkscape:window-y="23"
     inkscape:window-x="50"
     inkscape:cy="239.75513"
     inkscape:cx="217.09488"
     inkscape:zoom="0.83403374"
     showgrid="false"
     id="namedview841"
     inkscape:window-height="855"
     inkscape:window-width="1390"
     inkscape:pageshadow="2"
     inkscape:pageopacity="0"
     guidetolerance="10"
     gridtolerance="10"
     objecttolerance="10"
     borderopacity="1"
     inkscape:document-rotation="0"
     bordercolor="#666666"
     pagecolor="#ffffff" />
  <g
     inkscape:label="background 1"
     id="layer3"
     inkscape:groupmode="layer">
    <rect
       y="-1.1989923"
       x="-1.1989923"
       height="356.10071"
       width="515.56665"
       id="rect912"
       style="display:inline;fill:#c4c8b7" />
  </g>
  <g
     style="display:inline"
     inkscape:label="background"
     id="layer1"
     inkscape:groupmode="layer">
    <rect
       y="311.73798"
       x="0"
       height="200.2317"
       width="515.56665"
       id="rect885"
       style="fill:#cdde87" />
    <ellipse
       ry="70.74054"
       rx="209.22415"
       cy="311.73798"
       cx="209.22415"
       id="path908"
       style="fill:#cdde87" />
    <ellipse
       ry="85.727951"
       rx="101.31484"
       cy="309.93951"
       cx="413.05286"
       id="path910"
       style="fill:#cdde87;stroke-width:1.3858" />
    <path
       inkscape:connector-curvature="0"
       id="path929"
       d="m 245.76207,141.80405 c 0,0 20.14211,16.43641 42.30238,-13.30459 22.16027,-29.741002 37.55739,-41.200614 37.55739,-41.200614 0,0 1.70305,44.590304 -6.6899,78.162084 -8.39294,33.57179 -37.15409,102.20304 -70.13371,121.24257 -32.97962,19.03953 -10.19877,7.04961 0.59216,-16.93024 10.79093,-23.97985 50.29499,-100.06943 -3.62832,-127.96921 z"
       style="fill:#e2e3db;stroke:#000000;stroke-width:1px;stroke-linecap:butt;stroke-linejoin:miter;stroke-opacity:1" />
    <path
       inkscape:connector-curvature="0"
       id="path931"
       d="m 111.66527,433.08315 c 0,0 17.82589,39.3198 35.81078,42.91678 17.98488,3.59698 50.22962,6.78946 50.22962,6.78946 0,0 -5.9571,-23.21403 -28.64776,-39.16225 -22.69066,-15.94822 -57.39264,-10.54399 -57.39264,-10.54399 z"
       style="fill:#eef4d7;stroke:#000000;stroke-width:1px;stroke-linecap:butt;stroke-linejoin:miter;stroke-opacity:1" />
    <path
       sodipodi:nodetypes="cscc"
       inkscape:connector-curvature="0"
       id="path933"
       d="m 271.57805,463.38496 c 0,0 46.47102,26.27844 84.71187,10.95247 38.24085,-15.32597 17.71044,-41.19496 17.71044,-41.19496 0,0 -89.55317,17.35201 -102.42231,30.24249 z"
       style="fill:#eef4d7;stroke:#000000;stroke-width:1px;stroke-linecap:butt;stroke-linejoin:miter;stroke-opacity:1" />
  </g>
  <g
     style="display:inline"
     inkscape:label="inks"
     id="layer2"
     inkscape:groupmode="layer">
    <path
       inkscape:connector-curvature="0"
       d="m 266.65923,60.717088 c -4.64592,0.187451 -9.29694,0.174146 -13.94566,0.144245 -5.78097,-0.0706 -10.26734,1.004404 -15.51304,3.328153 -12.17701,5.791243 -19.8256,9.901428 -26.78522,20.122625 -2.51319,3.652377 -4.12346,7.926281 -5.08195,12.240283 -0.80299,3.676516 -0.82293,7.471976 -0.95369,11.218736 -0.0502,2.83074 -0.0225,5.66271 -0.0219,8.49397 -0.11941,2.8063 0.88475,5.46479 1.5402,8.15126 1.00875,3.05755 2.5195,5.96299 4.14957,8.7358 1.93082,3.47935 5.04383,5.74714 8.22467,7.98258 4.04123,2.71089 8.53913,4.36698 13.24883,5.45439 6.61004,1.15378 13.27891,1.67947 19.97697,1.90125 8.75294,0.47335 17.26595,-0.82226 25.55904,-3.54784 8.69538,-3.50449 3.86483,-1.40742 20.05845,-10.96017 1.27536,-0.75234 2.97284,-2.29959 3.94066,-3.40245 1.36271,-1.55286 2.04116,-2.76065 3.14143,-4.48771 2.94583,-4.87243 3.70158,-10.00069 4.18871,-15.54903 0.12305,-3.46193 0.50707,-6.98567 -0.0166,-10.43892 -0.24857,-1.639239 -0.82843,-3.226706 -1.32984,-4.795293 -2.50572,-6.946078 -8.24582,-12.00837 -13.51442,-16.911424 -4.60883,-4.556638 -9.65941,-8.646958 -15.46486,-11.557691 -4.13709,-2.024062 -8.65892,-2.235588 -13.16614,-2.441585 -3.19154,0.09931 -6.36764,0.700497 -9.18036,2.287922 -15.60836,8.808953 -11.7686,6.198877 -18.65204,11.01134 0,0 16.20517,-6.354634 16.20517,-6.354634 v 0 c 5.71678,-3.746321 2.96262,-1.890561 -11.06328,6.152298 -0.7089,0.406506 1.41547,-0.819548 2.14864,-1.180453 2.06461,-1.016307 4.16939,-1.476762 6.44761,-1.74085 4.34709,0.06293 8.74947,0.194077 12.8542,1.798052 5.87497,2.552154 10.90458,6.526267 15.58781,10.857627 5.09514,4.659566 10.33614,9.689505 12.62698,16.376931 1.35233,4.79501 1.70342,9.63682 1.10588,14.6057 -0.53893,5.24064 -1.61268,10.33344 -4.59125,14.79243 -1.31442,1.85304 -1.6494,2.50121 -3.31151,4.11137 -3.57585,3.46408 -17.24593,11.39616 8.28808,-3.94844 0.91064,-0.54724 -1.93196,0.88458 -2.89794,1.32686 -8.26188,3.07869 -16.44833,4.69404 -25.31907,4.16962 -6.51044,-0.33607 -12.99556,-0.86997 -19.43326,-1.93063 -4.55277,-0.90895 -8.8284,-2.42926 -12.76424,-4.94562 -2.97727,-2.08219 -5.91146,-4.16101 -7.72202,-7.4138 -1.54711,-2.63048 -2.95716,-5.39746 -3.85635,-8.31975 -0.64564,-2.55996 -1.44149,-5.12078 -1.31448,-7.79459 -0.023,-2.80703 -0.0434,-5.61392 -0.0243,-8.421034 0.0231,-3.626541 0.17234,-7.27265 1.01951,-10.815271 1.14478,-4.110298 2.6417,-8.144335 5.21691,-11.596757 1.59855,-2.187393 3.22659,-4.262461 5.21898,-6.11677 0.73329,-0.682466 3.18518,-2.393195 2.28707,-1.9495 -4.93808,2.439565 -17.95672,10.287709 -10.02752,5.526842 1.256,-0.60705 3.63518,-1.804231 4.98591,-2.27812 3.21691,-1.128613 6.60889,-1.458056 9.99107,-1.581225 4.51625,-0.02854 9.03546,-0.05164 13.54859,0.144246 0,0 14.39003,-10.454973 14.39003,-10.454973 z"
       id="path877"
       style="fill:#000000" />
    <path
       inkscape:connector-curvature="0"
       d="m 233.19663,294.65289 c 0.15353,5.51215 0.64653,11.06587 0.40936,16.5829 -0.23422,5.44841 -0.81559,8.53739 -1.58849,14.02892 -3.61676,18.96915 -11.43718,36.79317 -21.18687,53.37525 -1.90205,3.23498 -3.97711,6.36508 -5.96566,9.54762 -5.338,7.83753 -10.88012,15.74064 -17.67046,22.42533 -5.18805,5.10733 -11.17101,9.17824 -17.2552,13.10286 -13.13054,7.56171 2.12617,-1.16685 4.17367,-2.72164 1.23813,-0.9402 -2.83439,1.28058 -4.27728,1.85938 -3.60542,1.44629 -7.28054,2.51393 -11.03538,3.47711 -3.65365,0.88878 -7.38767,1.28374 -11.13783,1.3813 -0.43205,-0.001 -0.86341,-0.024 -1.29524,-0.033 0,0 -14.55209,10.44761 -14.55209,10.44761 v 0 c 0.5225,0.0432 1.04563,0.0346 1.5695,0.0102 3.99472,-0.0844 7.96986,-0.56659 11.8712,-1.43768 5.27615,-1.34502 11.1527,-2.8257 15.97348,-5.38721 6.35904,-3.37887 12.60186,-6.97263 18.86576,-10.52478 1.66433,-0.94382 3.27783,-1.97459 4.91674,-2.96189 5.9044,-4.00029 11.66258,-8.14418 16.63929,-13.30972 6.4764,-6.72213 11.70245,-14.61612 16.8428,-22.35271 4.16326,-6.92217 7.90193,-12.87004 11.56911,-20.11397 7.05278,-13.93162 12.36425,-28.66444 16.21356,-43.7831 0.55374,-3.45972 1.83021,-10.93468 2.1123,-14.5621 0.13111,-1.6859 0.0202,-3.38194 0.0409,-5.07279 0.0487,-3.97751 0.13145,-7.95581 0.36843,-11.92728 0,0 -15.60163,7.94943 -15.60163,7.94943 z"
       id="path851"
       style="fill:#000000" />
    <path
       inkscape:connector-curvature="0"
       d="m 97.604751,432.92936 c 0.31428,2.62232 0.302434,6.57407 1.335173,8.9588 1.123516,2.59435 4.124106,6.72651 5.606606,8.90376 1.19596,1.59971 2.28038,3.28922 3.58789,4.79912 1.54129,1.77987 3.24979,3.40943 4.93987,5.04867 5.90173,5.72422 12.18319,10.83258 18.94035,15.49589 6.29095,4.57066 13.68374,6.81812 20.96063,9.23617 6.70026,2.18891 13.72347,2.81155 20.6738,3.69831 5.56895,1.02311 11.06769,1.25087 16.6433,0.29541 8.29331,-1.67665 14.28604,-6.33307 21.91549,-10.97842 0.46996,-0.28614 0.80737,-0.78013 1.04902,-1.27444 0.25623,-0.52411 0.27086,-1.13491 0.40628,-1.70237 -0.64448,-4.2384 -3.33441,-7.24436 -6.22955,-10.21554 -5.41119,-5.55333 -3.85105,-3.87269 -11.27894,-9.66082 -11.55344,-8.28026 -23.2598,-16.59111 -36.14425,-22.70628 -5.32184,-2.52584 -9.7155,-4.12685 -15.13187,-6.22423 -5.74186,-1.47454 -13.21694,-5.31595 -19.32928,-4.40641 -10.099,5.11592 -16.91088,4.97881 -16.22687,13.71484 0.0186,0.14321 0.0372,0.28641 0.0558,0.42962 0,0 15.82992,-8.31492 15.82992,-8.31492 v 0 c -0.0125,-0.1063 -0.025,-0.21261 -0.0376,-0.31891 -0.30778,-6.57385 15.82949,-10.7324 -13.50525,5.37554 0.35177,-0.23362 0.65729,-0.5598 1.05531,-0.70088 4.37022,-1.54902 14.71663,2.27295 18.96501,3.12972 6.23241,2.05848 9.38832,2.94469 15.57407,5.70039 12.90132,5.74744 24.8354,13.58885 35.72495,22.53593 4.91025,4.60221 6.20232,5.48833 10.09992,10.08817 1.75831,2.07511 4.00641,4.76732 4.62314,7.57102 0.099,0.44987 -0.002,0.92126 -0.002,1.38189 -0.22723,0.33758 -0.39594,0.72301 -0.68169,1.01274 -0.34408,0.34888 -1.60994,1.11214 -1.18076,0.87568 26.34247,-14.51361 15.81634,-8.10695 10.20616,-6.32988 -0.63461,0.20102 -1.28175,0.36008 -1.92262,0.54011 -5.54452,1.28896 -11.07486,1.36814 -16.70586,0.4352 -6.84346,-0.83333 -13.69732,-1.7602 -20.372,-3.53204 -7.27853,-2.18588 -14.56847,-4.56921 -21.07059,-8.59856 -10.39486,-6.65436 -20.31431,-14.28299 -27.25837,-24.67114 -2.03976,-3.39542 -3.37439,-5.11962 -4.58123,-8.76816 -0.92808,-2.80577 -0.82627,-5.97755 -0.72039,-8.88118 0,0 -15.813139,8.0572 -15.813139,8.0572 z"
       id="path853"
       style="fill:#1a1a1a" />
    <path
       inkscape:connector-curvature="0"
       d="m 236.67023,304.50275 c 0.45347,6.22116 0.38582,12.46263 0.37087,18.69604 -0.39324,6.76311 0.36622,13.46301 1.09183,20.17049 0.80718,8.07996 2.43029,16.01941 3.91695,23.98935 0.75684,6.14791 2.44472,12.09983 3.96192,18.08429 1.46804,5.38045 3.0289,10.73806 4.37711,16.15 1.09206,5.31814 2.08789,10.66293 2.72613,16.0568 0.59728,4.85785 2.32899,9.45127 3.65011,14.13986 1.13288,4.27269 3.14948,8.18407 5.24528,12.04323 2.19587,3.57579 4.05624,7.32798 6.20608,10.93188 0.83381,1.41454 1.61843,2.85758 2.36017,4.32235 0.44961,0.88788 0.64214,1.2793 0.45792,1.17202 -0.25334,-0.14752 -0.38903,-0.43866 -0.58354,-0.65799 5.06079,-2.89722 10.12159,-5.79443 15.18239,-8.69165 0,0 -14.72131,10.12135 -14.72131,10.12135 v 0 c 5.34074,-2.82271 10.68147,-5.64542 16.02221,-8.46813 -0.72519,-2.40899 -2.56218,-4.3031 -3.7155,-6.51607 -2.25333,-3.54581 -3.75034,-7.44303 -6.07543,-10.93596 -2.17668,-3.66952 -4.01009,-7.50774 -5.18367,-11.62536 -1.4355,-4.57387 -2.84592,-9.15903 -3.47676,-13.92954 -0.83008,-5.39674 -1.86761,-10.76437 -3.05824,-16.09274 -1.35657,-5.4338 -2.61323,-10.89579 -4.22109,-16.26136 -1.61445,-5.88009 -3.38498,-11.73567 -4.27909,-17.78317 -1.58298,-7.91752 -3.01269,-15.86629 -3.74142,-23.91579 -0.66817,-6.64788 -1.14536,-13.31385 -1.03541,-20.00108 -0.0153,-6.3596 -0.0715,-12.72577 0.37088,-19.07398 0,0 -15.84839,8.07516 -15.84839,8.07516 z"
       id="path863"
       style="fill:#000000" />
    <path
       inkscape:connector-curvature="0"
       d="m 288.36442,454.38958 c 4.77188,-2.84217 13.38895,-8.28244 -7.73697,4.39437 -1.19669,0.71808 2.42804,-1.38229 3.69015,-1.97791 4.78341,-2.25742 7.33044,-3.03607 12.44211,-4.8946 13.62475,-4.68782 27.68488,-7.8294 41.90093,-10.05059 6.00475,-0.62242 12.86877,-1.9665 18.8019,-0.0707 0.73449,0.23469 1.41442,0.61451 2.12163,0.92177 4.13403,2.18583 6.4068,5.79095 7.91979,10.07425 1.47948,4.40962 -0.60879,8.5027 -3.27728,11.95175 -1.47059,1.65224 -3.28836,2.86644 -5.14212,4.03505 -0.81401,0.51314 -3.28639,2.0026 -2.45049,1.52594 15.92085,-9.07857 14.73427,-8.39993 8.61877,-5.16872 -4.12785,1.89219 -8.19028,4.0562 -12.53436,5.43628 -4.56885,1.45148 -6.05629,1.61225 -10.81647,2.57197 -9.43328,1.27449 -19.05272,2.90717 -28.61286,2.22999 -1.89615,-0.13431 -3.77397,-0.45924 -5.66095,-0.68885 -7.12126,-1.0463 -14.16504,-3.17109 -19.8721,-7.67627 -0.98327,-0.97621 -2.031,-2.08906 -1.86911,-3.55551 0.21305,-0.67569 0.18323,-1.38319 0.21157,-2.08466 0.0716,-1.87053 0.86065,-3.73073 1.48011,-5.49513 0,0 -16.00062,7.51695 -16.00062,7.51695 v 0 c -0.6155,1.96781 -1.37552,3.91803 -1.44083,6.004 -0.0504,0.75253 -0.23325,1.49775 -0.12233,2.25295 0.30902,1.9485 1.54936,3.41049 3.00296,4.69637 6.27089,4.37536 13.68429,6.74604 21.21937,7.80508 4.52251,0.63988 6.9137,1.14402 11.49394,1.1332 1.79484,-0.004 3.58319,-0.2171 5.37338,-0.34615 5.92217,-0.4269 11.82706,-1.03308 17.70271,-1.89778 1.80187,-0.32013 8.57467,-1.47607 10.52693,-1.99716 4.40837,-1.17667 8.44508,-3.47891 12.62075,-5.24033 8.798,-4.4342 3.90943,-1.8982 20.67363,-11.70863 2.83724,-1.66036 5.53915,-3.61091 7.5143,-6.27404 2.54454,-4.05155 4.36525,-8.70939 2.54212,-13.44295 -1.75465,-4.66972 -4.23346,-8.69402 -8.68462,-11.22705 -2.06403,-0.95823 -2.96856,-1.53629 -5.30833,-1.91707 -5.36319,-0.87283 -11.68124,0.0527 -16.98056,0.82989 -14.31292,2.39087 -28.51515,5.46672 -42.31589,10.00945 -2.63485,0.88406 -9.13663,2.99012 -11.94262,4.1915 -1.24417,0.53268 -2.43203,1.19167 -3.61151,1.85541 -7.38664,4.15676 -14.72602,8.38995 -22.04127,12.66829 0,0 16.56424,-6.39041 16.56424,-6.39041 z"
       id="path867"
       style="fill:#000000" />
    <path
       inkscape:connector-curvature="0"
       d="m 255.93746,285.08151 c 4.18729,-3.93597 8.77498,-7.44228 12.94019,-11.40023 1.56786,-1.48984 3.04661,-3.07073 4.56991,-4.60609 10.66772,-10.26408 19.45573,-22.17473 27.24057,-34.70947 3.12304,-5.51337 6.2491,-11.09335 8.76554,-16.92046 2.38151,-5.51467 4.20669,-11.2822 6.02127,-16.99923 3.09764,-10.39049 5.44691,-20.98326 7.91408,-31.53594 1.93104,-8.96893 2.59882,-18.13928 2.96192,-27.28756 0.312,-8.29677 0.0708,-16.59889 0.0811,-24.89845 -0.21606,-6.89177 0.41451,-13.8006 0.0491,-20.685162 -0.12044,-1.886776 -0.31501,-3.767489 -0.57997,-5.639097 0,0 -15.67645,8.358637 -15.67645,8.358637 v 0 c 0.41405,1.721442 0.71677,3.467192 0.87969,5.231692 0.45509,6.76521 0.28942,13.56333 0.40795,20.33909 0.0388,8.29866 -0.0872,16.59685 -0.2196,24.89425 -0.32411,9.0211 -0.85715,18.05585 -2.85982,26.89073 -2.31697,10.49739 -4.73774,20.97445 -7.74814,31.29904 -3.75021,11.60062 -8.27528,22.9255 -14.60824,33.39377 -7.89671,12.45969 -16.71367,24.32748 -27.55186,34.42281 -6.12965,5.73426 -12.46113,11.24288 -19.04315,16.45556 0,0 16.4559,-6.60389 16.4559,-6.60389 z"
       id="path871"
       style="fill:#000000" />
    <path
       inkscape:connector-curvature="0"
       d="m 325.62189,87.298846 c -0.0274,-0.543596 7.3e-4,-1.092853 -0.0822,-1.630788 -0.47222,-3.063848 -1.34962,-5.898019 -2.15957,-8.903726 -1.79535,-6.662471 -3.95416,-13.147017 -6.17499,-19.67891 -3.72306,-9.275713 -7.2244,-18.701864 -11.70704,-27.649001 -0.78929,-1.9838 -2.10109,-3.370998 -3.6319,-4.747291 -0.98648,-0.924484 -2.1834,-1.047635 -3.47524,-1.103915 -4.10462,0.01022 -8.21076,0.0764 -12.31514,0.151452 -13.67754,0.126421 -26.59295,4.868068 -39.32723,9.352872 -12.96007,4.497954 -25.73823,9.534156 -37.84032,16.016633 -11.57019,5.377917 -21.27319,12.238878 -30.47557,20.693962 -2.50354,2.419096 -5.21213,4.605116 -7.57045,7.169178 -0.29847,0.573775 -1.07347,0.967557 -1.31937,1.582873 -0.0715,0.178906 7e-5,0.400469 -0.0896,0.571004 -0.0568,0.108082 -0.20782,0.128262 -0.31173,0.192393 -0.0702,0.167351 -0.14033,0.334701 -0.21049,0.502051 -0.75119,0.08425 -1.26723,1.295262 -1.71747,1.478707 0,0 16.53897,-6.844735 16.53897,-6.844735 v 0 c 0.33098,-0.691134 1.33487,-1.004297 1.48605,-1.884384 1.20485,-1.482631 -0.66087,0.894652 0.47461,-0.860095 0.35314,-0.545746 1.15276,-0.93758 1.45339,-1.548773 2.32273,-2.404551 4.8917,-4.558056 7.26497,-6.911682 2.12429,-1.97626 4.26946,-3.914574 6.555,-5.706251 4.43593,-3.477393 16.46267,-10.806428 -5.09394,2.058816 12.38555,-6.95567 25.47236,-12.503663 38.88186,-17.178224 12.13165,-4.22141 24.45071,-8.561079 37.45847,-8.625149 3.92122,0.06846 7.84312,0.09068 11.76386,0.179048 0.89655,0.01562 1.82371,-0.08946 2.69155,0.144349 1.41776,1.236164 3.04833,2.021655 3.8559,3.921972 5.21604,8.401974 9.07178,17.5907 12.62142,26.792563 3.38527,9.769896 7.00931,20.026689 6.67827,30.504286 0,0 15.77788,-8.039235 15.77788,-8.039235 z"
       id="path873"
       style="fill:#000000" />
    <path
       sodipodi:nodetypes="ccccccccccccccccccccccccccc"
       inkscape:connector-curvature="0"
       d="m 231.04675,152.39989 c 5.78316,1.6554 10.74764,4.98163 15.46746,8.84292 5.01024,4.40582 9.35517,9.5651 12.7866,15.46941 2.74845,5.00238 3.47851,10.70744 3.85851,16.40232 0.39058,5.44007 -0.0255,10.89646 -0.87252,16.26112 -1.10757,6.26816 -2.94746,12.36535 -4.99699,18.33974 -1.99037,5.84089 -3.79617,11.73859 -5.87602,17.54351 -1.77957,5.0681 -3.70864,10.07619 -5.76404,15.02122 -2.26105,5.77859 -4.93363,11.36551 -7.62688,16.92062 -3.02029,6.16833 -7.30093,18.72523 -10.20647,24.95673 -0.8751,1.96362 -1.07499,-2.21269 0,0 0.14711,0.20053 0.29422,0.40108 0.44132,0.60163 l 14.87076,-10.85495 v 0 c 0.0592,0.16675 0.11834,0.33351 0.17751,0.50026 0.13893,0.45134 0.15658,-0.27656 0.24593,-0.52864 0.45384,-1.28037 1.04364,-2.50281 1.52998,-3.76785 2.64132,-6.22578 5.35442,-12.42339 8.40841,-18.42777 2.76665,-5.67081 5.67805,-11.27373 7.93848,-17.21204 1.98399,-4.93879 3.84762,-9.93164 5.53325,-14.99917 2.09403,-5.80399 3.94261,-11.69715 5.84419,-17.57668 1.988,-6.11118 3.95484,-12.26504 4.94745,-18.67469 0.89265,-5.51891 1.15991,-11.12356 0.73302,-16.71591 -0.52206,-5.95436 -1.38342,-11.93109 -4.35374,-17.11488 -3.52274,-6.14359 -8.16401,-11.28517 -13.28225,-15.92448 -4.6747,-3.87661 -9.41389,-7.6629 -15.08864,-9.65826 z"
       id="path879"
       style="fill:#000000;stroke-width:1.03947" />
    <path
       inkscape:connector-curvature="0"
       d="m 162.40321,82.027941 c 0.27185,6.926871 0.40787,13.860851 0.41231,20.793249 0.0816,14.01772 -1.43534,27.95843 -3.224,41.83902 -1.26165,8.84277 -2.87381,17.64489 -3.98005,26.51015 -1.08531,8.69759 -1.62357,17.46166 -2.28593,26.19795 -0.92311,13.42595 -1.18089,26.87085 -1.11806,40.32313 0.006,10.43093 -0.26479,20.86121 -0.23111,31.29173 0.1019,5.95675 0.53855,11.90062 0.73078,17.85375 0.0775,3.41641 0.15851,6.83397 0.19115,10.25117 -0.003,3.38792 -0.0136,6.77637 -0.0706,10.16382 -0.0194,1.65197 -0.005,0.86017 -0.0419,2.37545 0,0 15.76178,-8.02942 15.76178,-8.02942 v 0 c -0.0351,-1.48398 -0.0214,-0.70583 -0.038,-2.33449 -0.0511,-3.36708 -0.051,-6.73502 -0.0675,-10.10245 0.008,-3.44349 0.0469,-6.88567 -0.2544,-10.32114 -0.46614,-5.82129 -1.06233,-11.63579 -1.26652,-17.47461 -10e-4,-10.33685 -0.33508,-20.67216 -0.30589,-31.00986 0.13679,-13.3425 0.0988,-26.69376 0.74865,-40.02406 0.98289,-17.61245 3.18618,-35.08264 6.0768,-52.48313 2.18859,-14.11006 3.98543,-28.31712 4.25752,-42.610154 0.005,-7.072453 0.14564,-14.146195 0.41231,-21.213415 0,0 -15.70738,8.00331 -15.70738,8.00331 z"
       id="path881"
       style="fill:#000000" />
    <path
       inkscape:connector-curvature="0"
       d="m 167.14288,292.1226 c -3.39097,0.10875 -6.78506,0.0928 -10.1775,0.0943 -3.18988,-0.007 -6.3797,-0.0377 -9.56953,-0.033 -7.89252,-0.0563 -17.68764,4.10854 -20.89166,11.50851 -0.97043,2.51913 -1.16275,5.18211 -1.26598,7.84876 -0.21028,2.12857 -0.10844,4.10695 0.78419,6.0634 0.80464,1.61231 2.04891,2.74365 3.66238,3.49578 1.83252,0.69158 3.8146,0.62278 5.74088,0.6475 2.15824,0.10834 4.28187,-0.0583 6.37612,-0.58041 6.51484,-2.58762 11.9309,-6.36402 18.20487,-10.16927 0.28408,-0.1723 0.36947,-0.55563 0.5946,-0.79998 0.22623,-0.24553 0.50136,-0.44102 0.75204,-0.66153 1.10786,-0.91911 1.37812,-2.2091 1.96823,-3.40607 0.0595,-0.12078 1.07669,-1.46949 1.15001,-1.56747 0.7245,-1.15011 1.56774,-2.95632 2.76413,-3.65453 0.8439,-1.04543 1.60118,-2.02963 2.15025,-3.25466 0.33823,-0.69487 0.38194,-1.49112 0.41119,-2.25225 0,0 -15.99328,7.89481 -15.99328,7.89481 v 0 c -0.14569,0.59501 -0.32732,1.14258 -0.67311,1.65721 -0.65403,1.01272 -1.51998,1.90836 -2.35117,2.77717 -0.83257,1.31751 -1.7714,2.55671 -2.53551,3.92041 -0.99137,1.62405 -1.69869,3.39363 -3.28198,4.57574 -0.47357,0.43722 -2.08999,1.50188 -1.53082,1.18131 25.74785,-14.7609 18.01174,-9.86791 12.31213,-7.22337 -1.79679,1.09066 -3.95507,1.25776 -6.0156,1.18721 -1.76144,-0.002 -3.53632,0.0157 -5.28627,-0.20438 -1.36076,-0.36893 -2.29177,-0.97252 -2.9581,-2.27776 -0.72407,-1.67304 -0.542,-3.48771 -0.49917,-5.27174 0.15406,-2.44164 0.40914,-4.9256 1.64377,-7.09314 4.1388,-5.2169 0.91183,-0.9191 -13.62428,7.24717 -0.26332,0.14794 0.48901,-0.35593 0.74783,-0.5116 1.08306,-0.65142 2.15688,-0.84516 3.42307,-0.74448 3.22009,0.005 6.44017,-0.0264 9.6603,-0.033 3.30587,10e-4 6.61369,-0.0174 9.91793,0.0943 0,0 14.39004,-10.45497 14.39004,-10.45497 z"
       id="path883"
       style="fill:#000000" />
  </g>
  <circle
     r="0.59889662"
     cy="286.55914"
     cx="242.19644"
     style="fill:#ffffff;stroke:#000000"
     id="path847" />
  <circle
     r="0.59889662"
     cy="326.12589"
     cx="239.79845"
     style="fill:#1a1a1a;stroke:#000000"
     id="path855" />
  <circle
     r="0.59889662"
     cy="296.15109"
     cx="244.59442"
     style="fill:#000000;stroke:#000000"
     id="path857" />
  <circle
     r="0.59889662"
     cy="288.95715"
     cx="245.79341"
     style="fill:#000000;stroke:#000000"
     id="path869" />
  <circle
     r="0.59889662"
     cy="59.949612"
     cx="257.78333"
     style="fill:#000000;stroke:#000000"
     id="path875" />
</svg>
