<?xml version="1.0" encoding="UTF-8" standalone="no"?>
<!DOCTYPE svg PUBLIC "-//W3C//DTD SVG 1.1//EN"
 "http://www.w3.org/Graphics/SVG/1.1/DTD/svg11.dtd">
<!-- Generated by graphviz version 2.40.1 (20161225.0304)
 -->
<!-- Title: dependencies Pages: 1 -->
<svg width="504pt" height="211pt"
 viewBox="0.00 0.00 504.00 211.00" xmlns="http://www.w3.org/2000/svg" xmlns:xlink="http://www.w3.org/1999/xlink">
<g id="graph0" class="graph" transform="scale(1 1) rotate(0) translate(4 207)">
<title>dependencies</title>
<polygon fill="#ffffff" stroke="transparent" points="-4,4 -4,-207 500,-207 500,4 -4,4"/>
<text text-anchor="start" x="227.0091" y="-42.4" font-family="sans-serif" font-weight="bold" font-size="14.00" fill="#000000">Legend</text>
<polygon fill="#ffffb3" stroke="transparent" points="14,-10 14,-30 34,-30 34,-10 14,-10"/>
<text text-anchor="start" x="37.629" y="-15.4" font-family="sans-serif" font-size="14.00" fill="#000000"> &#160;Declarations</text>
<polygon fill="#8dd3c7" stroke="transparent" points="127,-10 127,-30 147,-30 147,-10 127,-10"/>
<text text-anchor="start" x="150.7251" y="-15.4" font-family="sans-serif" font-size="14.00" fill="#000000"> &#160;Module</text>
<polygon fill="#80b1d3" stroke="transparent" points="213,-10 213,-30 233,-30 233,-10 213,-10"/>
<text text-anchor="start" x="236.7812" y="-15.4" font-family="sans-serif" font-size="14.00" fill="#000000"> &#160;Bootstrap</text>
<polygon fill="#fdb462" stroke="transparent" points="310,-10 310,-30 330,-30 330,-10 310,-10"/>
<text text-anchor="start" x="333.6732" y="-15.4" font-family="sans-serif" font-size="14.00" fill="#000000"> &#160;Providers</text>
<polygon fill="#fb8072" stroke="transparent" points="406,-10 406,-30 426,-30 426,-10 406,-10"/>
<text text-anchor="start" x="429.7258" y="-15.4" font-family="sans-serif" font-size="14.00" fill="#000000"> &#160;Exports</text>
<g id="clust1" class="cluster">
<title>cluster_LeaderboardMobModule</title>
<polygon fill="none" stroke="#000000" stroke-dasharray="1,5" points="35,-70 35,-195 461,-195 461,-70 35,-70"/>
</g>
<g id="clust2" class="cluster">
<title>cluster_LeaderboardMobModule_declarations</title>
<polygon fill="none" stroke="#000000" points="297,-78 297,-130 453,-130 453,-78 297,-78"/>
</g>
<g id="clust4" class="cluster">
<title>cluster_LeaderboardMobModule_imports</title>
<polygon fill="none" stroke="#000000" points="43,-78 43,-130 289,-130 289,-78 43,-78"/>
</g>
<!-- LeaderboardMobPage -->
<g id="node1" class="node">
<title>LeaderboardMobPage</title>
<polygon fill="#ffffb3" stroke="#000000" points="445.3891,-122 304.6109,-122 304.6109,-86 445.3891,-86 445.3891,-122"/>
<text text-anchor="middle" x="375" y="-99.8" font-family="Times,serif" font-size="14.00" fill="#000000">LeaderboardMobPage</text>
</g>
<!-- LeaderboardMobModule -->
<g id="node2" class="node">
<title>LeaderboardMobModule</title>
<polygon fill="#8dd3c7" stroke="#000000" points="348.2268,-187 345.2268,-191 324.2268,-191 321.2268,-187 191.7732,-187 191.7732,-151 348.2268,-151 348.2268,-187"/>
<text text-anchor="middle" x="270" y="-164.8" font-family="Times,serif" font-size="14.00" fill="#000000">LeaderboardMobModule</text>
</g>
<!-- LeaderboardMobPage&#45;&gt;LeaderboardMobModule -->
<g id="edge1" class="edge">
<title>LeaderboardMobPage&#45;&gt;LeaderboardMobModule</title>
<path fill="none" stroke="#000000" d="M326.5845,-122.1061C326.5845,-122.1061 326.5845,-140.991 326.5845,-140.991"/>
<polygon fill="#000000" stroke="#000000" points="323.0846,-140.9909 326.5845,-150.991 330.0846,-140.991 323.0846,-140.9909"/>
</g>
<!-- LeaderboardMobPageRoutingModule -->
<g id="node3" class="node">
<title>LeaderboardMobPageRoutingModule</title>
<polygon fill="#8dd3c7" stroke="#000000" points="280.5562,-122 277.5562,-126 256.5562,-126 253.5562,-122 51.4438,-122 51.4438,-86 280.5562,-86 280.5562,-122"/>
<text text-anchor="middle" x="166" y="-99.8" font-family="Times,serif" font-size="14.00" fill="#000000">LeaderboardMobPageRoutingModule</text>
</g>
<!-- LeaderboardMobPageRoutingModule&#45;&gt;LeaderboardMobModule -->
<g id="edge2" class="edge">
<title>LeaderboardMobPageRoutingModule&#45;&gt;LeaderboardMobModule</title>
<path fill="none" stroke="#000000" d="M236.0824,-122.1061C236.0824,-122.1061 236.0824,-140.991 236.0824,-140.991"/>
<polygon fill="#000000" stroke="#000000" points="232.5825,-140.9909 236.0824,-150.991 239.5825,-140.991 232.5825,-140.9909"/>
</g>
</g>
</svg>
