<?xml version="1.0" encoding="UTF-8" standalone="no"?>
<!DOCTYPE svg PUBLIC "-//W3C//DTD SVG 1.1//EN"
 "http://www.w3.org/Graphics/SVG/1.1/DTD/svg11.dtd">
<!-- Generated by graphviz version 2.40.1 (20161225.0304)
 -->
<!-- Title: dependencies Pages: 1 -->
<svg width="504pt" height="284pt"
 viewBox="0.00 0.00 504.00 284.00" xmlns="http://www.w3.org/2000/svg" xmlns:xlink="http://www.w3.org/1999/xlink">
<g id="graph0" class="graph" transform="scale(1 1) rotate(0) translate(4 280)">
<title>dependencies</title>
<polygon fill="#ffffff" stroke="transparent" points="-4,4 -4,-280 500,-280 500,4 -4,4"/>
<text text-anchor="start" x="227.0091" y="-42.4" font-family="sans-serif" font-weight="bold" font-size="14.00" fill="#000000">Legend</text>
<polygon fill="#ffffb3" stroke="transparent" points="14,-10 14,-30 34,-30 34,-10 14,-10"/>
<text text-anchor="start" x="37.629" y="-15.4" font-family="sans-serif" font-size="14.00" fill="#000000"> &#160;Declarations</text>
<polygon fill="#8dd3c7" stroke="transparent" points="127,-10 127,-30 147,-30 147,-10 127,-10"/>
<text text-anchor="start" x="150.7251" y="-15.4" font-family="sans-serif" font-size="14.00" fill="#000000"> &#160;Module</text>
<polygon fill="#80b1d3" stroke="transparent" points="213,-10 213,-30 233,-30 233,-10 213,-10"/>
<text text-anchor="start" x="236.7812" y="-15.4" font-family="sans-serif" font-size="14.00" fill="#000000"> &#160;Bootstrap</text>
<polygon fill="#fdb462" stroke="transparent" points="310,-10 310,-30 330,-30 330,-10 310,-10"/>
<text text-anchor="start" x="333.6732" y="-15.4" font-family="sans-serif" font-size="14.00" fill="#000000"> &#160;Providers</text>
<polygon fill="#fb8072" stroke="transparent" points="406,-10 406,-30 426,-30 426,-10 406,-10"/>
<text text-anchor="start" x="429.7258" y="-15.4" font-family="sans-serif" font-size="14.00" fill="#000000"> &#160;Exports</text>
<g id="clust1" class="cluster">
<title>cluster_AboutModule</title>
<polygon fill="none" stroke="#000000" stroke-dasharray="1,5" points="44,-70 44,-268 452,-268 452,-70 44,-70"/>
</g>
<g id="clust2" class="cluster">
<title>cluster_AboutModule_declarations</title>
<polygon fill="none" stroke="#000000" points="242,-78 242,-130 444,-130 444,-78 242,-78"/>
</g>
<g id="clust5" class="cluster">
<title>cluster_AboutModule_imports</title>
<polygon fill="none" stroke="#000000" points="52,-78 52,-130 234,-130 234,-78 52,-78"/>
</g>
<g id="clust7" class="cluster">
<title>cluster_AboutModule_bootstrap</title>
<polygon fill="none" stroke="#000000" points="246,-208 246,-260 344,-260 344,-208 246,-208"/>
</g>
<!-- AboutPage -->
<g id="node1" class="node">
<title>AboutPage</title>
<polygon fill="#ffffb3" stroke="#000000" points="436.2093,-122 357.7907,-122 357.7907,-86 436.2093,-86 436.2093,-122"/>
<text text-anchor="middle" x="397" y="-99.8" font-family="Times,serif" font-size="14.00" fill="#000000">AboutPage</text>
</g>
<!-- AboutModule -->
<g id="node3" class="node">
<title>AboutModule</title>
<polygon fill="#8dd3c7" stroke="#000000" points="342.0481,-187 339.0481,-191 318.0481,-191 315.0481,-187 247.9519,-187 247.9519,-151 342.0481,-151 342.0481,-187"/>
<text text-anchor="middle" x="295" y="-164.8" font-family="Times,serif" font-size="14.00" fill="#000000">AboutModule</text>
</g>
<!-- AboutPage&#45;&gt;AboutModule -->
<g id="edge1" class="edge">
<title>AboutPage&#45;&gt;AboutModule</title>
<path fill="none" stroke="#000000" d="M397,-122.1061C397,-141.3391 397,-169 397,-169 397,-169 352.1186,-169 352.1186,-169"/>
<polygon fill="#000000" stroke="#000000" points="352.1186,-165.5001 342.1186,-169 352.1185,-172.5001 352.1186,-165.5001"/>
</g>
<!-- PopoverPage -->
<g id="node2" class="node">
<title>PopoverPage</title>
<polygon fill="#ffffb3" stroke="#000000" points="339.8697,-122 250.1303,-122 250.1303,-86 339.8697,-86 339.8697,-122"/>
<text text-anchor="middle" x="295" y="-99.8" font-family="Times,serif" font-size="14.00" fill="#000000">PopoverPage</text>
</g>
<!-- PopoverPage&#45;&gt;AboutModule -->
<g id="edge2" class="edge">
<title>PopoverPage&#45;&gt;AboutModule</title>
<path fill="none" stroke="#000000" d="M295,-122.1061C295,-122.1061 295,-140.991 295,-140.991"/>
<polygon fill="#000000" stroke="#000000" points="291.5001,-140.9909 295,-150.991 298.5001,-140.991 291.5001,-140.9909"/>
</g>
<!-- AboutPage  -->
<g id="node5" class="node">
<title>AboutPage </title>
<polygon fill="#80b1d3" stroke="#000000" points="335.7095,-252 254.2905,-252 254.2905,-216 335.7095,-216 335.7095,-252"/>
<text text-anchor="middle" x="295" y="-229.8" font-family="Times,serif" font-size="14.00" fill="#000000">AboutPage </text>
</g>
<!-- AboutModule&#45;&gt;AboutPage  -->
<g id="edge4" class="edge">
<title>AboutModule&#45;&gt;AboutPage </title>
<path fill="none" stroke="#000000" stroke-dasharray="1,5" d="M295,-187.1061C295,-187.1061 295,-205.991 295,-205.991"/>
<polygon fill="#000000" stroke="#000000" points="291.5001,-205.9909 295,-215.991 298.5001,-205.991 291.5001,-205.9909"/>
</g>
<!-- AboutPageRoutingModule -->
<g id="node4" class="node">
<title>AboutPageRoutingModule</title>
<polygon fill="#8dd3c7" stroke="#000000" points="226.3766,-122 223.3766,-126 202.3766,-126 199.3766,-122 59.6234,-122 59.6234,-86 226.3766,-86 226.3766,-122"/>
<text text-anchor="middle" x="143" y="-99.8" font-family="Times,serif" font-size="14.00" fill="#000000">AboutPageRoutingModule</text>
</g>
<!-- AboutPageRoutingModule&#45;&gt;AboutModule -->
<g id="edge3" class="edge">
<title>AboutPageRoutingModule&#45;&gt;AboutModule</title>
<path fill="none" stroke="#000000" d="M143,-122.1061C143,-141.3391 143,-169 143,-169 143,-169 237.7395,-169 237.7395,-169"/>
<polygon fill="#000000" stroke="#000000" points="237.7395,-172.5001 247.7395,-169 237.7394,-165.5001 237.7395,-172.5001"/>
</g>
</g>
</svg>
