<?xml version="1.0" encoding="UTF-8" standalone="no"?>
<!DOCTYPE svg PUBLIC "-//W3C//DTD SVG 1.1//EN"
 "http://www.w3.org/Graphics/SVG/1.1/DTD/svg11.dtd">
<!-- Generated by graphviz version 2.40.1 (20161225.0304)
 -->
<!-- Title: dependencies Pages: 1 -->
<svg width="504pt" height="211pt"
 viewBox="0.00 0.00 504.00 211.00" xmlns="http://www.w3.org/2000/svg" xmlns:xlink="http://www.w3.org/1999/xlink">
<g id="graph0" class="graph" transform="scale(1 1) rotate(0) translate(4 207)">
<title>dependencies</title>
<polygon fill="#ffffff" stroke="transparent" points="-4,4 -4,-207 500,-207 500,4 -4,4"/>
<text text-anchor="start" x="227.0091" y="-42.4" font-family="sans-serif" font-weight="bold" font-size="14.00" fill="#000000">Legend</text>
<polygon fill="#ffffb3" stroke="transparent" points="14,-10 14,-30 34,-30 34,-10 14,-10"/>
<text text-anchor="start" x="37.629" y="-15.4" font-family="sans-serif" font-size="14.00" fill="#000000"> &#160;Declarations</text>
<polygon fill="#8dd3c7" stroke="transparent" points="127,-10 127,-30 147,-30 147,-10 127,-10"/>
<text text-anchor="start" x="150.7251" y="-15.4" font-family="sans-serif" font-size="14.00" fill="#000000"> &#160;Module</text>
<polygon fill="#80b1d3" stroke="transparent" points="213,-10 213,-30 233,-30 233,-10 213,-10"/>
<text text-anchor="start" x="236.7812" y="-15.4" font-family="sans-serif" font-size="14.00" fill="#000000"> &#160;Bootstrap</text>
<polygon fill="#fdb462" stroke="transparent" points="310,-10 310,-30 330,-30 330,-10 310,-10"/>
<text text-anchor="start" x="333.6732" y="-15.4" font-family="sans-serif" font-size="14.00" fill="#000000"> &#160;Providers</text>
<polygon fill="#fb8072" stroke="transparent" points="406,-10 406,-30 426,-30 426,-10 406,-10"/>
<text text-anchor="start" x="429.7258" y="-15.4" font-family="sans-serif" font-size="14.00" fill="#000000"> &#160;Exports</text>
<g id="clust1" class="cluster">
<title>cluster_EventModule</title>
<polygon fill="none" stroke="#000000" stroke-dasharray="1,5" points="100,-70 100,-195 396,-195 396,-70 100,-70"/>
</g>
<g id="clust2" class="cluster">
<title>cluster_EventModule_declarations</title>
<polygon fill="none" stroke="#000000" points="296,-78 296,-130 388,-130 388,-78 296,-78"/>
</g>
<g id="clust4" class="cluster">
<title>cluster_EventModule_imports</title>
<polygon fill="none" stroke="#000000" points="108,-78 108,-130 288,-130 288,-78 108,-78"/>
</g>
<!-- EventPage -->
<g id="node1" class="node">
<title>EventPage</title>
<polygon fill="#ffffb3" stroke="#000000" points="379.8697,-122 304.1303,-122 304.1303,-86 379.8697,-86 379.8697,-122"/>
<text text-anchor="middle" x="342" y="-99.8" font-family="Times,serif" font-size="14.00" fill="#000000">EventPage</text>
</g>
<!-- EventModule -->
<g id="node2" class="node">
<title>EventModule</title>
<polygon fill="#8dd3c7" stroke="#000000" points="316.2078,-187 313.2078,-191 292.2078,-191 289.2078,-187 223.7922,-187 223.7922,-151 316.2078,-151 316.2078,-187"/>
<text text-anchor="middle" x="270" y="-164.8" font-family="Times,serif" font-size="14.00" fill="#000000">EventModule</text>
</g>
<!-- EventPage&#45;&gt;EventModule -->
<g id="edge1" class="edge">
<title>EventPage&#45;&gt;EventModule</title>
<path fill="none" stroke="#000000" d="M310.0845,-122.1061C310.0845,-122.1061 310.0845,-140.991 310.0845,-140.991"/>
<polygon fill="#000000" stroke="#000000" points="306.5846,-140.9909 310.0845,-150.991 313.5846,-140.991 306.5846,-140.9909"/>
</g>
<!-- EventPageRoutingModule -->
<g id="node3" class="node">
<title>EventPageRoutingModule</title>
<polygon fill="#8dd3c7" stroke="#000000" points="280.0378,-122 277.0378,-126 256.0378,-126 253.0378,-122 115.9622,-122 115.9622,-86 280.0378,-86 280.0378,-122"/>
<text text-anchor="middle" x="198" y="-99.8" font-family="Times,serif" font-size="14.00" fill="#000000">EventPageRoutingModule</text>
</g>
<!-- EventPageRoutingModule&#45;&gt;EventModule -->
<g id="edge2" class="edge">
<title>EventPageRoutingModule&#45;&gt;EventModule</title>
<path fill="none" stroke="#000000" d="M252.0824,-122.1061C252.0824,-122.1061 252.0824,-140.991 252.0824,-140.991"/>
<polygon fill="#000000" stroke="#000000" points="248.5825,-140.9909 252.0824,-150.991 255.5825,-140.991 248.5825,-140.9909"/>
</g>
</g>
</svg>
