<?xml version="1.0" encoding="UTF-8" standalone="no"?>
<!DOCTYPE svg PUBLIC "-//W3C//DTD SVG 1.1//EN"
 "http://www.w3.org/Graphics/SVG/1.1/DTD/svg11.dtd">
<!-- Generated by graphviz version 2.40.1 (20161225.0304)
 -->
<!-- Title: dependencies Pages: 1 -->
<svg width="1282pt" height="211pt"
 viewBox="0.00 0.00 1282.00 211.00" xmlns="http://www.w3.org/2000/svg" xmlns:xlink="http://www.w3.org/1999/xlink">
<g id="graph0" class="graph" transform="scale(1 1) rotate(0) translate(4 207)">
<title>dependencies</title>
<polygon fill="#ffffff" stroke="transparent" points="-4,4 -4,-207 1278,-207 1278,4 -4,4"/>
<text text-anchor="start" x="616.0091" y="-42.4" font-family="sans-serif" font-weight="bold" font-size="14.00" fill="#000000">Legend</text>
<polygon fill="#ffffb3" stroke="transparent" points="403,-10 403,-30 423,-30 423,-10 403,-10"/>
<text text-anchor="start" x="426.629" y="-15.4" font-family="sans-serif" font-size="14.00" fill="#000000"> &#160;Declarations</text>
<polygon fill="#8dd3c7" stroke="transparent" points="516,-10 516,-30 536,-30 536,-10 516,-10"/>
<text text-anchor="start" x="539.7251" y="-15.4" font-family="sans-serif" font-size="14.00" fill="#000000"> &#160;Module</text>
<polygon fill="#80b1d3" stroke="transparent" points="602,-10 602,-30 622,-30 622,-10 602,-10"/>
<text text-anchor="start" x="625.7812" y="-15.4" font-family="sans-serif" font-size="14.00" fill="#000000"> &#160;Bootstrap</text>
<polygon fill="#fdb462" stroke="transparent" points="699,-10 699,-30 719,-30 719,-10 699,-10"/>
<text text-anchor="start" x="722.6732" y="-15.4" font-family="sans-serif" font-size="14.00" fill="#000000"> &#160;Providers</text>
<polygon fill="#fb8072" stroke="transparent" points="795,-10 795,-30 815,-30 815,-10 795,-10"/>
<text text-anchor="start" x="818.7258" y="-15.4" font-family="sans-serif" font-size="14.00" fill="#000000"> &#160;Exports</text>
<g id="clust1" class="cluster">
<title>cluster_TabsModule</title>
<polygon fill="none" stroke="#000000" stroke-dasharray="1,5" points="8,-70 8,-195 1266,-195 1266,-70 8,-70"/>
</g>
<g id="clust2" class="cluster">
<title>cluster_TabsModule_declarations</title>
<polygon fill="none" stroke="#000000" points="1172,-78 1172,-130 1258,-130 1258,-78 1172,-78"/>
</g>
<g id="clust4" class="cluster">
<title>cluster_TabsModule_imports</title>
<polygon fill="none" stroke="#000000" points="16,-78 16,-130 1164,-130 1164,-78 16,-78"/>
</g>
<!-- TabsPage -->
<g id="node1" class="node">
<title>TabsPage</title>
<polygon fill="#ffffb3" stroke="#000000" points="1250.4249,-122 1179.5751,-122 1179.5751,-86 1250.4249,-86 1250.4249,-122"/>
<text text-anchor="middle" x="1215" y="-99.8" font-family="Times,serif" font-size="14.00" fill="#000000">TabsPage</text>
</g>
<!-- TabsModule -->
<g id="node2" class="node">
<title>TabsModule</title>
<polygon fill="#8dd3c7" stroke="#000000" points="700.2619,-187 697.2619,-191 676.2619,-191 673.2619,-187 613.7381,-187 613.7381,-151 700.2619,-151 700.2619,-187"/>
<text text-anchor="middle" x="657" y="-164.8" font-family="Times,serif" font-size="14.00" fill="#000000">TabsModule</text>
</g>
<!-- TabsPage&#45;&gt;TabsModule -->
<g id="edge1" class="edge">
<title>TabsPage&#45;&gt;TabsModule</title>
<path fill="none" stroke="#000000" d="M1215,-122.0109C1215,-144.4852 1215,-180 1215,-180 1215,-180 710.321,-180 710.321,-180"/>
<polygon fill="#000000" stroke="#000000" points="710.321,-176.5001 700.321,-180 710.321,-183.5001 710.321,-176.5001"/>
</g>
<!-- AboutModule -->
<g id="node3" class="node">
<title>AboutModule</title>
<polygon fill="#8dd3c7" stroke="#000000" points="1156.0481,-122 1153.0481,-126 1132.0481,-126 1129.0481,-122 1061.9519,-122 1061.9519,-86 1156.0481,-86 1156.0481,-122"/>
<text text-anchor="middle" x="1109" y="-99.8" font-family="Times,serif" font-size="14.00" fill="#000000">AboutModule</text>
</g>
<!-- AboutModule&#45;&gt;TabsModule -->
<g id="edge2" class="edge">
<title>AboutModule&#45;&gt;TabsModule</title>
<path fill="none" stroke="#000000" d="M1109,-122.1289C1109,-142.5724 1109,-173 1109,-173 1109,-173 710.3397,-173 710.3397,-173"/>
<polygon fill="#000000" stroke="#000000" points="710.3397,-169.5001 700.3397,-173 710.3396,-176.5001 710.3397,-169.5001"/>
</g>
<!-- LeaderboardListModule -->
<g id="node4" class="node">
<title>LeaderboardListModule</title>
<polygon fill="#8dd3c7" stroke="#000000" points="1044.0604,-122 1041.0604,-126 1020.0604,-126 1017.0604,-122 891.9396,-122 891.9396,-86 1044.0604,-86 1044.0604,-122"/>
<text text-anchor="middle" x="968" y="-99.8" font-family="Times,serif" font-size="14.00" fill="#000000">LeaderboardListModule</text>
</g>
<!-- LeaderboardListModule&#45;&gt;TabsModule -->
<g id="edge3" class="edge">
<title>LeaderboardListModule&#45;&gt;TabsModule</title>
<path fill="none" stroke="#000000" d="M968,-122.2667C968,-140.5552 968,-166 968,-166 968,-166 710.5707,-166 710.5707,-166"/>
<polygon fill="#000000" stroke="#000000" points="710.5707,-162.5001 700.5707,-166 710.5706,-169.5001 710.5707,-162.5001"/>
</g>
<!-- LeaderboardMobModule -->
<g id="node5" class="node">
<title>LeaderboardMobModule</title>
<polygon fill="#8dd3c7" stroke="#000000" points="874.2268,-122 871.2268,-126 850.2268,-126 847.2268,-122 717.7732,-122 717.7732,-86 874.2268,-86 874.2268,-122"/>
<text text-anchor="middle" x="796" y="-99.8" font-family="Times,serif" font-size="14.00" fill="#000000">LeaderboardMobModule</text>
</g>
<!-- LeaderboardMobModule&#45;&gt;TabsModule -->
<g id="edge4" class="edge">
<title>LeaderboardMobModule&#45;&gt;TabsModule</title>
<path fill="none" stroke="#000000" d="M796,-122.0091C796,-138.0494 796,-159 796,-159 796,-159 710.5991,-159 710.5991,-159"/>
<polygon fill="#000000" stroke="#000000" points="710.5991,-155.5001 700.5991,-159 710.5991,-162.5001 710.5991,-155.5001"/>
</g>
<!-- MapModule -->
<g id="node6" class="node">
<title>MapModule</title>
<polygon fill="#8dd3c7" stroke="#000000" points="699.7093,-122 696.7093,-126 675.7093,-126 672.7093,-122 614.2907,-122 614.2907,-86 699.7093,-86 699.7093,-122"/>
<text text-anchor="middle" x="657" y="-99.8" font-family="Times,serif" font-size="14.00" fill="#000000">MapModule</text>
</g>
<!-- MapModule&#45;&gt;TabsModule -->
<g id="edge5" class="edge">
<title>MapModule&#45;&gt;TabsModule</title>
<path fill="none" stroke="#000000" d="M657,-122.1061C657,-122.1061 657,-140.991 657,-140.991"/>
<polygon fill="#000000" stroke="#000000" points="653.5001,-140.9909 657,-150.991 660.5001,-140.991 653.5001,-140.9909"/>
</g>
<!-- PlayerDetailModule -->
<g id="node7" class="node">
<title>PlayerDetailModule</title>
<polygon fill="#8dd3c7" stroke="#000000" points="596.5213,-122 593.5213,-126 572.5213,-126 569.5213,-122 467.4787,-122 467.4787,-86 596.5213,-86 596.5213,-122"/>
<text text-anchor="middle" x="532" y="-99.8" font-family="Times,serif" font-size="14.00" fill="#000000">PlayerDetailModule</text>
</g>
<!-- PlayerDetailModule&#45;&gt;TabsModule -->
<g id="edge6" class="edge">
<title>PlayerDetailModule&#45;&gt;TabsModule</title>
<path fill="none" stroke="#000000" d="M532,-122.0091C532,-138.0494 532,-159 532,-159 532,-159 603.6319,-159 603.6319,-159"/>
<polygon fill="#000000" stroke="#000000" points="603.6319,-162.5001 613.6319,-159 603.6318,-155.5001 603.6319,-162.5001"/>
</g>
<!-- ScoreListModule -->
<g id="node8" class="node">
<title>ScoreListModule</title>
<polygon fill="#8dd3c7" stroke="#000000" points="449.7008,-122 446.7008,-126 425.7008,-126 422.7008,-122 336.2992,-122 336.2992,-86 449.7008,-86 449.7008,-122"/>
<text text-anchor="middle" x="393" y="-99.8" font-family="Times,serif" font-size="14.00" fill="#000000">ScoreListModule</text>
</g>
<!-- ScoreListModule&#45;&gt;TabsModule -->
<g id="edge7" class="edge">
<title>ScoreListModule&#45;&gt;TabsModule</title>
<path fill="none" stroke="#000000" d="M393,-122.2667C393,-140.5552 393,-166 393,-166 393,-166 603.7014,-166 603.7014,-166"/>
<polygon fill="#000000" stroke="#000000" points="603.7014,-169.5001 613.7014,-166 603.7014,-162.5001 603.7014,-169.5001"/>
</g>
<!-- ScoreSignModule -->
<g id="node9" class="node">
<title>ScoreSignModule</title>
<polygon fill="#8dd3c7" stroke="#000000" points="318.5954,-122 315.5954,-126 294.5954,-126 291.5954,-122 201.4046,-122 201.4046,-86 318.5954,-86 318.5954,-122"/>
<text text-anchor="middle" x="260" y="-99.8" font-family="Times,serif" font-size="14.00" fill="#000000">ScoreSignModule</text>
</g>
<!-- ScoreSignModule&#45;&gt;TabsModule -->
<g id="edge8" class="edge">
<title>ScoreSignModule&#45;&gt;TabsModule</title>
<path fill="none" stroke="#000000" d="M260,-122.1289C260,-142.5724 260,-173 260,-173 260,-173 603.3784,-173 603.3784,-173"/>
<polygon fill="#000000" stroke="#000000" points="603.3785,-176.5001 613.3784,-173 603.3784,-169.5001 603.3785,-176.5001"/>
</g>
<!-- TabsPageRoutingModule -->
<g id="node10" class="node">
<title>TabsPageRoutingModule</title>
<polygon fill="#8dd3c7" stroke="#000000" points="183.5912,-122 180.5912,-126 159.5912,-126 156.5912,-122 24.4088,-122 24.4088,-86 183.5912,-86 183.5912,-122"/>
<text text-anchor="middle" x="104" y="-99.8" font-family="Times,serif" font-size="14.00" fill="#000000">TabsPageRoutingModule</text>
</g>
<!-- TabsPageRoutingModule&#45;&gt;TabsModule -->
<g id="edge9" class="edge">
<title>TabsPageRoutingModule&#45;&gt;TabsModule</title>
<path fill="none" stroke="#000000" d="M104,-122.0109C104,-144.4852 104,-180 104,-180 104,-180 603.607,-180 603.607,-180"/>
<polygon fill="#000000" stroke="#000000" points="603.6071,-183.5001 613.607,-180 603.607,-176.5001 603.6071,-183.5001"/>
</g>
</g>
</svg>
