<?xml version="1.0" encoding="UTF-8" standalone="no"?>
<!DOCTYPE svg PUBLIC "-//W3C//DTD SVG 1.1//EN"
 "http://www.w3.org/Graphics/SVG/1.1/DTD/svg11.dtd">
<!-- Generated by graphviz version 2.40.1 (20161225.0304)
 -->
<!-- Title: dependencies Pages: 1 -->
<svg width="504pt" height="211pt"
 viewBox="0.00 0.00 504.00 211.00" xmlns="http://www.w3.org/2000/svg" xmlns:xlink="http://www.w3.org/1999/xlink">
<g id="graph0" class="graph" transform="scale(1 1) rotate(0) translate(4 207)">
<title>dependencies</title>
<polygon fill="#ffffff" stroke="transparent" points="-4,4 -4,-207 500,-207 500,4 -4,4"/>
<text text-anchor="start" x="227.0091" y="-42.4" font-family="sans-serif" font-weight="bold" font-size="14.00" fill="#000000">Legend</text>
<polygon fill="#ffffb3" stroke="transparent" points="14,-10 14,-30 34,-30 34,-10 14,-10"/>
<text text-anchor="start" x="37.629" y="-15.4" font-family="sans-serif" font-size="14.00" fill="#000000"> &#160;Declarations</text>
<polygon fill="#8dd3c7" stroke="transparent" points="127,-10 127,-30 147,-30 147,-10 127,-10"/>
<text text-anchor="start" x="150.7251" y="-15.4" font-family="sans-serif" font-size="14.00" fill="#000000"> &#160;Module</text>
<polygon fill="#80b1d3" stroke="transparent" points="213,-10 213,-30 233,-30 233,-10 213,-10"/>
<text text-anchor="start" x="236.7812" y="-15.4" font-family="sans-serif" font-size="14.00" fill="#000000"> &#160;Bootstrap</text>
<polygon fill="#fdb462" stroke="transparent" points="310,-10 310,-30 330,-30 330,-10 310,-10"/>
<text text-anchor="start" x="333.6732" y="-15.4" font-family="sans-serif" font-size="14.00" fill="#000000"> &#160;Providers</text>
<polygon fill="#fb8072" stroke="transparent" points="406,-10 406,-30 426,-30 426,-10 406,-10"/>
<text text-anchor="start" x="429.7258" y="-15.4" font-family="sans-serif" font-size="14.00" fill="#000000"> &#160;Exports</text>
<g id="clust1" class="cluster">
<title>cluster_ScoreListModule</title>
<polygon fill="none" stroke="#000000" stroke-dasharray="1,5" points="79,-70 79,-195 417,-195 417,-70 79,-70"/>
</g>
<g id="clust2" class="cluster">
<title>cluster_ScoreListModule_declarations</title>
<polygon fill="none" stroke="#000000" points="297,-78 297,-130 409,-130 409,-78 297,-78"/>
</g>
<g id="clust4" class="cluster">
<title>cluster_ScoreListModule_imports</title>
<polygon fill="none" stroke="#000000" points="87,-78 87,-130 289,-130 289,-78 87,-78"/>
</g>
<!-- ScoreListPage -->
<g id="node1" class="node">
<title>ScoreListPage</title>
<polygon fill="#ffffb3" stroke="#000000" points="401.3627,-122 304.6373,-122 304.6373,-86 401.3627,-86 401.3627,-122"/>
<text text-anchor="middle" x="353" y="-99.8" font-family="Times,serif" font-size="14.00" fill="#000000">ScoreListPage</text>
</g>
<!-- ScoreListModule -->
<g id="node2" class="node">
<title>ScoreListModule</title>
<polygon fill="#8dd3c7" stroke="#000000" points="326.7008,-187 323.7008,-191 302.7008,-191 299.7008,-187 213.2992,-187 213.2992,-151 326.7008,-151 326.7008,-187"/>
<text text-anchor="middle" x="270" y="-164.8" font-family="Times,serif" font-size="14.00" fill="#000000">ScoreListModule</text>
</g>
<!-- ScoreListPage&#45;&gt;ScoreListModule -->
<g id="edge1" class="edge">
<title>ScoreListPage&#45;&gt;ScoreListModule</title>
<path fill="none" stroke="#000000" d="M315.5845,-122.1061C315.5845,-122.1061 315.5845,-140.991 315.5845,-140.991"/>
<polygon fill="#000000" stroke="#000000" points="312.0846,-140.9909 315.5845,-150.991 319.0846,-140.991 312.0846,-140.9909"/>
</g>
<!-- ScoreListPageRoutingModule -->
<g id="node3" class="node">
<title>ScoreListPageRoutingModule</title>
<polygon fill="#8dd3c7" stroke="#000000" points="280.5308,-122 277.5308,-126 256.5308,-126 253.5308,-122 95.4692,-122 95.4692,-86 280.5308,-86 280.5308,-122"/>
<text text-anchor="middle" x="188" y="-99.8" font-family="Times,serif" font-size="14.00" fill="#000000">ScoreListPageRoutingModule</text>
</g>
<!-- ScoreListPageRoutingModule&#45;&gt;ScoreListModule -->
<g id="edge2" class="edge">
<title>ScoreListPageRoutingModule&#45;&gt;ScoreListModule</title>
<path fill="none" stroke="#000000" d="M247.0824,-122.1061C247.0824,-122.1061 247.0824,-140.991 247.0824,-140.991"/>
<polygon fill="#000000" stroke="#000000" points="243.5825,-140.9909 247.0824,-150.991 250.5825,-140.991 243.5825,-140.9909"/>
</g>
</g>
</svg>
