<?xml version="1.0" encoding="UTF-8" standalone="no"?>
<!DOCTYPE svg PUBLIC "-//W3C//DTD SVG 1.1//EN"
 "http://www.w3.org/Graphics/SVG/1.1/DTD/svg11.dtd">
<!-- Generated by graphviz version 2.40.1 (20161225.0304)
 -->
<!-- Title: dependencies Pages: 1 -->
<svg width="5170pt" height="287pt"
 viewBox="0.00 0.00 5170.00 287.00" xmlns="http://www.w3.org/2000/svg" xmlns:xlink="http://www.w3.org/1999/xlink">
<g id="graph0" class="graph" transform="scale(1 1) rotate(0) translate(4 283)">
<title>dependencies</title>
<polygon fill="#ffffff" stroke="transparent" points="-4,4 -4,-283 5166,-283 5166,4 -4,4"/>
<text text-anchor="start" x="2560.0091" y="-42.4" font-family="sans-serif" font-weight="bold" font-size="14.00" fill="#000000">Legend</text>
<polygon fill="#ffffb3" stroke="transparent" points="2347,-10 2347,-30 2367,-30 2367,-10 2347,-10"/>
<text text-anchor="start" x="2370.629" y="-15.4" font-family="sans-serif" font-size="14.00" fill="#000000"> &#160;Declarations</text>
<polygon fill="#8dd3c7" stroke="transparent" points="2460,-10 2460,-30 2480,-30 2480,-10 2460,-10"/>
<text text-anchor="start" x="2483.7251" y="-15.4" font-family="sans-serif" font-size="14.00" fill="#000000"> &#160;Module</text>
<polygon fill="#80b1d3" stroke="transparent" points="2546,-10 2546,-30 2566,-30 2566,-10 2546,-10"/>
<text text-anchor="start" x="2569.7812" y="-15.4" font-family="sans-serif" font-size="14.00" fill="#000000"> &#160;Bootstrap</text>
<polygon fill="#fdb462" stroke="transparent" points="2643,-10 2643,-30 2663,-30 2663,-10 2643,-10"/>
<text text-anchor="start" x="2666.6732" y="-15.4" font-family="sans-serif" font-size="14.00" fill="#000000"> &#160;Providers</text>
<polygon fill="#fb8072" stroke="transparent" points="2739,-10 2739,-30 2759,-30 2759,-10 2739,-10"/>
<text text-anchor="start" x="2762.7258" y="-15.4" font-family="sans-serif" font-size="14.00" fill="#000000"> &#160;Exports</text>
<g id="clust1" class="cluster">
<title>cluster_AboutModule</title>
<polygon fill="none" stroke="#000000" stroke-dasharray="1,5" points="8,-70 8,-271 416,-271 416,-70 8,-70"/>
</g>
<g id="clust2" class="cluster">
<title>cluster_AboutModule_declarations</title>
<polygon fill="none" stroke="#000000" points="206,-78 206,-130 408,-130 408,-78 206,-78"/>
</g>
<g id="clust5" class="cluster">
<title>cluster_AboutModule_imports</title>
<polygon fill="none" stroke="#000000" points="16,-78 16,-130 198,-130 198,-78 16,-78"/>
</g>
<g id="clust7" class="cluster">
<title>cluster_AboutModule_bootstrap</title>
<polygon fill="none" stroke="#000000" points="260,-211 260,-263 358,-263 358,-211 260,-211"/>
</g>
<g id="clust15" class="cluster">
<title>cluster_AccountModule</title>
<polygon fill="none" stroke="#000000" stroke-dasharray="1,5" points="2946,-70 2946,-198 3272,-198 3272,-70 2946,-70"/>
</g>
<g id="clust16" class="cluster">
<title>cluster_AccountModule_declarations</title>
<polygon fill="none" stroke="#000000" points="3158,-78 3158,-130 3264,-130 3264,-78 3158,-78"/>
</g>
<g id="clust18" class="cluster">
<title>cluster_AccountModule_imports</title>
<polygon fill="none" stroke="#000000" points="2954,-78 2954,-130 3150,-130 3150,-78 2954,-78"/>
</g>
<g id="clust28" class="cluster">
<title>cluster_AppModule</title>
<polygon fill="none" stroke="#000000" stroke-dasharray="1,5" points="3280,-70 3280,-271 3570,-271 3570,-70 3280,-70"/>
</g>
<g id="clust29" class="cluster">
<title>cluster_AppModule_declarations</title>
<polygon fill="none" stroke="#000000" points="3440,-78 3440,-130 3562,-130 3562,-78 3440,-78"/>
</g>
<g id="clust31" class="cluster">
<title>cluster_AppModule_imports</title>
<polygon fill="none" stroke="#000000" points="3288,-78 3288,-130 3432,-130 3432,-78 3288,-78"/>
</g>
<g id="clust33" class="cluster">
<title>cluster_AppModule_bootstrap</title>
<polygon fill="none" stroke="#000000" points="3368,-211 3368,-263 3492,-263 3492,-211 3368,-211"/>
</g>
<g id="clust41" class="cluster">
<title>cluster_EventModule</title>
<polygon fill="none" stroke="#000000" stroke-dasharray="1,5" points="3578,-70 3578,-198 3874,-198 3874,-70 3578,-70"/>
</g>
<g id="clust42" class="cluster">
<title>cluster_EventModule_declarations</title>
<polygon fill="none" stroke="#000000" points="3774,-78 3774,-130 3866,-130 3866,-78 3774,-78"/>
</g>
<g id="clust44" class="cluster">
<title>cluster_EventModule_imports</title>
<polygon fill="none" stroke="#000000" points="3586,-78 3586,-130 3766,-130 3766,-78 3586,-78"/>
</g>
<g id="clust54" class="cluster">
<title>cluster_LeaderboardListModule</title>
<polygon fill="none" stroke="#000000" stroke-dasharray="1,5" points="718,-70 718,-198 1134,-198 1134,-70 718,-70"/>
</g>
<g id="clust55" class="cluster">
<title>cluster_LeaderboardListModule_declarations</title>
<polygon fill="none" stroke="#000000" points="974,-78 974,-130 1126,-130 1126,-78 974,-78"/>
</g>
<g id="clust57" class="cluster">
<title>cluster_LeaderboardListModule_imports</title>
<polygon fill="none" stroke="#000000" points="726,-78 726,-130 966,-130 966,-78 726,-78"/>
</g>
<g id="clust67" class="cluster">
<title>cluster_LeaderboardMobModule</title>
<polygon fill="none" stroke="#000000" stroke-dasharray="1,5" points="1142,-70 1142,-198 1568,-198 1568,-70 1142,-70"/>
</g>
<g id="clust68" class="cluster">
<title>cluster_LeaderboardMobModule_declarations</title>
<polygon fill="none" stroke="#000000" points="1404,-78 1404,-130 1560,-130 1560,-78 1404,-78"/>
</g>
<g id="clust70" class="cluster">
<title>cluster_LeaderboardMobModule_imports</title>
<polygon fill="none" stroke="#000000" points="1150,-78 1150,-130 1396,-130 1396,-78 1150,-78"/>
</g>
<g id="clust80" class="cluster">
<title>cluster_LoginModule</title>
<polygon fill="none" stroke="#000000" stroke-dasharray="1,5" points="3882,-70 3882,-198 4180,-198 4180,-70 3882,-70"/>
</g>
<g id="clust81" class="cluster">
<title>cluster_LoginModule_declarations</title>
<polygon fill="none" stroke="#000000" points="4080,-78 4080,-130 4172,-130 4172,-78 4080,-78"/>
</g>
<g id="clust83" class="cluster">
<title>cluster_LoginModule_imports</title>
<polygon fill="none" stroke="#000000" points="3890,-78 3890,-130 4072,-130 4072,-78 3890,-78"/>
</g>
<g id="clust93" class="cluster">
<title>cluster_MapModule</title>
<polygon fill="none" stroke="#000000" stroke-dasharray="1,5" points="1576,-70 1576,-198 1858,-198 1858,-70 1576,-70"/>
</g>
<g id="clust94" class="cluster">
<title>cluster_MapModule_declarations</title>
<polygon fill="none" stroke="#000000" points="1766,-78 1766,-130 1850,-130 1850,-78 1766,-78"/>
</g>
<g id="clust96" class="cluster">
<title>cluster_MapModule_imports</title>
<polygon fill="none" stroke="#000000" points="1584,-78 1584,-130 1758,-130 1758,-78 1584,-78"/>
</g>
<g id="clust106" class="cluster">
<title>cluster_PlayerDetailModule</title>
<polygon fill="none" stroke="#000000" stroke-dasharray="1,5" points="1866,-70 1866,-198 2238,-198 2238,-70 1866,-70"/>
</g>
<g id="clust107" class="cluster">
<title>cluster_PlayerDetailModule_declarations</title>
<polygon fill="none" stroke="#000000" points="2100,-78 2100,-130 2230,-130 2230,-78 2100,-78"/>
</g>
<g id="clust109" class="cluster">
<title>cluster_PlayerDetailModule_imports</title>
<polygon fill="none" stroke="#000000" points="1874,-78 1874,-130 2092,-130 2092,-78 1874,-78"/>
</g>
<g id="clust119" class="cluster">
<title>cluster_ScoreListModule</title>
<polygon fill="none" stroke="#000000" stroke-dasharray="1,5" points="2246,-70 2246,-198 2584,-198 2584,-70 2246,-70"/>
</g>
<g id="clust120" class="cluster">
<title>cluster_ScoreListModule_declarations</title>
<polygon fill="none" stroke="#000000" points="2464,-78 2464,-130 2576,-130 2576,-78 2464,-78"/>
</g>
<g id="clust122" class="cluster">
<title>cluster_ScoreListModule_imports</title>
<polygon fill="none" stroke="#000000" points="2254,-78 2254,-130 2456,-130 2456,-78 2254,-78"/>
</g>
<g id="clust132" class="cluster">
<title>cluster_ScoreSignModule</title>
<polygon fill="none" stroke="#000000" stroke-dasharray="1,5" points="2592,-70 2592,-198 2938,-198 2938,-70 2592,-70"/>
</g>
<g id="clust133" class="cluster">
<title>cluster_ScoreSignModule_declarations</title>
<polygon fill="none" stroke="#000000" points="2814,-78 2814,-130 2930,-130 2930,-78 2814,-78"/>
</g>
<g id="clust135" class="cluster">
<title>cluster_ScoreSignModule_imports</title>
<polygon fill="none" stroke="#000000" points="2600,-78 2600,-130 2806,-130 2806,-78 2600,-78"/>
</g>
<g id="clust145" class="cluster">
<title>cluster_SignUpModule</title>
<polygon fill="none" stroke="#000000" stroke-dasharray="1,5" points="4188,-70 4188,-198 4498,-198 4498,-70 4188,-70"/>
</g>
<g id="clust146" class="cluster">
<title>cluster_SignUpModule_declarations</title>
<polygon fill="none" stroke="#000000" points="4392,-78 4392,-130 4490,-130 4490,-78 4392,-78"/>
</g>
<g id="clust148" class="cluster">
<title>cluster_SignUpModule_imports</title>
<polygon fill="none" stroke="#000000" points="4196,-78 4196,-130 4384,-130 4384,-78 4196,-78"/>
</g>
<g id="clust158" class="cluster">
<title>cluster_SupportModule</title>
<polygon fill="none" stroke="#000000" stroke-dasharray="1,5" points="4506,-70 4506,-198 4826,-198 4826,-70 4506,-70"/>
</g>
<g id="clust159" class="cluster">
<title>cluster_SupportModule_declarations</title>
<polygon fill="none" stroke="#000000" points="4714,-78 4714,-130 4818,-130 4818,-78 4714,-78"/>
</g>
<g id="clust161" class="cluster">
<title>cluster_SupportModule_imports</title>
<polygon fill="none" stroke="#000000" points="4514,-78 4514,-130 4706,-130 4706,-78 4514,-78"/>
</g>
<g id="clust171" class="cluster">
<title>cluster_TabsModule</title>
<polygon fill="none" stroke="#000000" stroke-dasharray="1,5" points="424,-138 424,-263 710,-263 710,-138 424,-138"/>
</g>
<g id="clust172" class="cluster">
<title>cluster_TabsModule_declarations</title>
<polygon fill="none" stroke="#000000" points="616,-146 616,-198 702,-198 702,-146 616,-146"/>
</g>
<g id="clust174" class="cluster">
<title>cluster_TabsModule_imports</title>
<polygon fill="none" stroke="#000000" points="432,-146 432,-198 608,-198 608,-146 432,-146"/>
</g>
<g id="clust184" class="cluster">
<title>cluster_TutorialModule</title>
<polygon fill="none" stroke="#000000" stroke-dasharray="1,5" points="4834,-70 4834,-198 5154,-198 5154,-70 4834,-70"/>
</g>
<g id="clust185" class="cluster">
<title>cluster_TutorialModule_declarations</title>
<polygon fill="none" stroke="#000000" points="5042,-78 5042,-130 5146,-130 5146,-78 5042,-78"/>
</g>
<g id="clust187" class="cluster">
<title>cluster_TutorialModule_imports</title>
<polygon fill="none" stroke="#000000" points="4842,-78 4842,-130 5034,-130 5034,-78 4842,-78"/>
</g>
<!-- AboutPage -->
<g id="node1" class="node">
<title>AboutPage</title>
<polygon fill="#ffffb3" stroke="#000000" points="400.2093,-122 321.7907,-122 321.7907,-86 400.2093,-86 400.2093,-122"/>
<text text-anchor="middle" x="361" y="-99.8" font-family="Times,serif" font-size="14.00" fill="#000000">AboutPage</text>
</g>
<!-- AboutModule -->
<g id="node3" class="node">
<title>AboutModule</title>
<polygon fill="#8dd3c7" stroke="#000000" points="356.0481,-190 353.0481,-194 332.0481,-194 329.0481,-190 261.9519,-190 261.9519,-154 356.0481,-154 356.0481,-190"/>
<text text-anchor="middle" x="309" y="-167.8" font-family="Times,serif" font-size="14.00" fill="#000000">AboutModule</text>
</g>
<!-- AboutPage&#45;&gt;AboutModule -->
<g id="edge1" class="edge">
<title>AboutPage&#45;&gt;AboutModule</title>
<path fill="none" stroke="#000000" d="M339.0845,-122.2228C339.0845,-122.2228 339.0845,-143.7269 339.0845,-143.7269"/>
<polygon fill="#000000" stroke="#000000" points="335.5846,-143.7269 339.0845,-153.7269 342.5846,-143.727 335.5846,-143.7269"/>
</g>
<!-- PopoverPage -->
<g id="node2" class="node">
<title>PopoverPage</title>
<polygon fill="#ffffb3" stroke="#000000" points="303.8697,-122 214.1303,-122 214.1303,-86 303.8697,-86 303.8697,-122"/>
<text text-anchor="middle" x="259" y="-99.8" font-family="Times,serif" font-size="14.00" fill="#000000">PopoverPage</text>
</g>
<!-- PopoverPage&#45;&gt;AboutModule -->
<g id="edge2" class="edge">
<title>PopoverPage&#45;&gt;AboutModule</title>
<path fill="none" stroke="#000000" d="M282.8307,-122.2228C282.8307,-122.2228 282.8307,-143.7269 282.8307,-143.7269"/>
<polygon fill="#000000" stroke="#000000" points="279.3307,-143.7269 282.8307,-153.7269 286.3307,-143.727 279.3307,-143.7269"/>
</g>
<!-- AboutPage  -->
<g id="node5" class="node">
<title>AboutPage </title>
<polygon fill="#80b1d3" stroke="#000000" points="349.7095,-255 268.2905,-255 268.2905,-219 349.7095,-219 349.7095,-255"/>
<text text-anchor="middle" x="309" y="-232.8" font-family="Times,serif" font-size="14.00" fill="#000000">AboutPage </text>
</g>
<!-- AboutModule&#45;&gt;AboutPage  -->
<g id="edge4" class="edge">
<title>AboutModule&#45;&gt;AboutPage </title>
<path fill="none" stroke="#000000" stroke-dasharray="1,5" d="M309,-190.1061C309,-190.1061 309,-208.991 309,-208.991"/>
<polygon fill="#000000" stroke="#000000" points="305.5001,-208.9909 309,-218.991 312.5001,-208.991 305.5001,-208.9909"/>
</g>
<!-- TabsModule -->
<g id="node44" class="node">
<title>TabsModule</title>
<polygon fill="#8dd3c7" stroke="#000000" points="702.2619,-255 699.2619,-259 678.2619,-259 675.2619,-255 615.7381,-255 615.7381,-219 702.2619,-219 702.2619,-255"/>
<text text-anchor="middle" x="659" y="-232.8" font-family="Times,serif" font-size="14.00" fill="#000000">TabsModule</text>
</g>
<!-- AboutModule&#45;&gt;TabsModule -->
<g id="edge31" class="edge">
<title>AboutModule&#45;&gt;TabsModule</title>
<path fill="none" stroke="#000000" d="M356.2972,-172C368.4593,-172 378.189,-172 378.189,-172 378.189,-172 378.189,-237 378.189,-237 378.189,-237 605.4314,-237 605.4314,-237"/>
<polygon fill="#000000" stroke="#000000" points="605.4314,-240.5001 615.4314,-237 605.4314,-233.5001 605.4314,-240.5001"/>
</g>
<!-- AboutPageRoutingModule -->
<g id="node4" class="node">
<title>AboutPageRoutingModule</title>
<polygon fill="#8dd3c7" stroke="#000000" points="190.3766,-122 187.3766,-126 166.3766,-126 163.3766,-122 23.6234,-122 23.6234,-86 190.3766,-86 190.3766,-122"/>
<text text-anchor="middle" x="107" y="-99.8" font-family="Times,serif" font-size="14.00" fill="#000000">AboutPageRoutingModule</text>
</g>
<!-- AboutPageRoutingModule&#45;&gt;AboutModule -->
<g id="edge3" class="edge">
<title>AboutPageRoutingModule&#45;&gt;AboutModule</title>
<path fill="none" stroke="#000000" d="M107,-122.2228C107,-142.3652 107,-172 107,-172 107,-172 251.8949,-172 251.8949,-172"/>
<polygon fill="#000000" stroke="#000000" points="251.8949,-175.5001 261.8949,-172 251.8949,-168.5001 251.8949,-175.5001"/>
</g>
<!-- AccountPage -->
<g id="node6" class="node">
<title>AccountPage</title>
<polygon fill="#ffffb3" stroke="#000000" points="3256.1389,-122 3165.8611,-122 3165.8611,-86 3256.1389,-86 3256.1389,-122"/>
<text text-anchor="middle" x="3211" y="-99.8" font-family="Times,serif" font-size="14.00" fill="#000000">AccountPage</text>
</g>
<!-- AccountModule -->
<g id="node7" class="node">
<title>AccountModule</title>
<polygon fill="#8dd3c7" stroke="#000000" points="3184.4762,-190 3181.4762,-194 3160.4762,-194 3157.4762,-190 3077.5238,-190 3077.5238,-154 3184.4762,-154 3184.4762,-190"/>
<text text-anchor="middle" x="3131" y="-167.8" font-family="Times,serif" font-size="14.00" fill="#000000">AccountModule</text>
</g>
<!-- AccountPage&#45;&gt;AccountModule -->
<g id="edge5" class="edge">
<title>AccountPage&#45;&gt;AccountModule</title>
<path fill="none" stroke="#000000" d="M3175.0845,-122.2228C3175.0845,-122.2228 3175.0845,-143.7269 3175.0845,-143.7269"/>
<polygon fill="#000000" stroke="#000000" points="3171.5846,-143.7269 3175.0845,-153.7269 3178.5846,-143.727 3171.5846,-143.7269"/>
</g>
<!-- AccountPageRoutingModule -->
<g id="node8" class="node">
<title>AccountPageRoutingModule</title>
<polygon fill="#8dd3c7" stroke="#000000" points="3141.8061,-122 3138.8061,-126 3117.8061,-126 3114.8061,-122 2962.1939,-122 2962.1939,-86 3141.8061,-86 3141.8061,-122"/>
<text text-anchor="middle" x="3052" y="-99.8" font-family="Times,serif" font-size="14.00" fill="#000000">AccountPageRoutingModule</text>
</g>
<!-- AccountPageRoutingModule&#45;&gt;AccountModule -->
<g id="edge6" class="edge">
<title>AccountPageRoutingModule&#45;&gt;AccountModule</title>
<path fill="none" stroke="#000000" d="M3109.5824,-122.2228C3109.5824,-122.2228 3109.5824,-143.7269 3109.5824,-143.7269"/>
<polygon fill="#000000" stroke="#000000" points="3106.0825,-143.7269 3109.5824,-153.7269 3113.0825,-143.727 3106.0825,-143.7269"/>
</g>
<!-- AppComponent -->
<g id="node9" class="node">
<title>AppComponent</title>
<polygon fill="#ffffb3" stroke="#000000" points="3553.9399,-122 3448.0601,-122 3448.0601,-86 3553.9399,-86 3553.9399,-122"/>
<text text-anchor="middle" x="3501" y="-99.8" font-family="Times,serif" font-size="14.00" fill="#000000">AppComponent</text>
</g>
<!-- AppModule -->
<g id="node10" class="node">
<title>AppModule</title>
<polygon fill="#8dd3c7" stroke="#000000" points="3471.6571,-190 3468.6571,-194 3447.6571,-194 3444.6571,-190 3388.3429,-190 3388.3429,-154 3471.6571,-154 3471.6571,-190"/>
<text text-anchor="middle" x="3430" y="-167.8" font-family="Times,serif" font-size="14.00" fill="#000000">AppModule</text>
</g>
<!-- AppComponent&#45;&gt;AppModule -->
<g id="edge7" class="edge">
<title>AppComponent&#45;&gt;AppModule</title>
<path fill="none" stroke="#000000" d="M3460.0544,-122.2228C3460.0544,-122.2228 3460.0544,-143.7269 3460.0544,-143.7269"/>
<polygon fill="#000000" stroke="#000000" points="3456.5544,-143.7269 3460.0544,-153.7269 3463.5544,-143.727 3456.5544,-143.7269"/>
</g>
<!-- AppComponent  -->
<g id="node12" class="node">
<title>AppComponent </title>
<polygon fill="#80b1d3" stroke="#000000" points="3484.439,-255 3375.561,-255 3375.561,-219 3484.439,-219 3484.439,-255"/>
<text text-anchor="middle" x="3430" y="-232.8" font-family="Times,serif" font-size="14.00" fill="#000000">AppComponent </text>
</g>
<!-- AppModule&#45;&gt;AppComponent  -->
<g id="edge9" class="edge">
<title>AppModule&#45;&gt;AppComponent </title>
<path fill="none" stroke="#000000" stroke-dasharray="1,5" d="M3430,-190.1061C3430,-190.1061 3430,-208.991 3430,-208.991"/>
<polygon fill="#000000" stroke="#000000" points="3426.5001,-208.9909 3430,-218.991 3433.5001,-208.991 3426.5001,-208.9909"/>
</g>
<!-- AppRoutingModule -->
<g id="node11" class="node">
<title>AppRoutingModule</title>
<polygon fill="#8dd3c7" stroke="#000000" points="3424.2744,-122 3421.2744,-126 3400.2744,-126 3397.2744,-122 3295.7256,-122 3295.7256,-86 3424.2744,-86 3424.2744,-122"/>
<text text-anchor="middle" x="3360" y="-99.8" font-family="Times,serif" font-size="14.00" fill="#000000">AppRoutingModule</text>
</g>
<!-- AppRoutingModule&#45;&gt;AppModule -->
<g id="edge8" class="edge">
<title>AppRoutingModule&#45;&gt;AppModule</title>
<path fill="none" stroke="#000000" d="M3406.2795,-122.2228C3406.2795,-122.2228 3406.2795,-143.7269 3406.2795,-143.7269"/>
<polygon fill="#000000" stroke="#000000" points="3402.7795,-143.7269 3406.2795,-153.7269 3409.7795,-143.727 3402.7795,-143.7269"/>
</g>
<!-- EventPage -->
<g id="node13" class="node">
<title>EventPage</title>
<polygon fill="#ffffb3" stroke="#000000" points="3857.8697,-122 3782.1303,-122 3782.1303,-86 3857.8697,-86 3857.8697,-122"/>
<text text-anchor="middle" x="3820" y="-99.8" font-family="Times,serif" font-size="14.00" fill="#000000">EventPage</text>
</g>
<!-- EventModule -->
<g id="node14" class="node">
<title>EventModule</title>
<polygon fill="#8dd3c7" stroke="#000000" points="3794.2078,-190 3791.2078,-194 3770.2078,-194 3767.2078,-190 3701.7922,-190 3701.7922,-154 3794.2078,-154 3794.2078,-190"/>
<text text-anchor="middle" x="3748" y="-167.8" font-family="Times,serif" font-size="14.00" fill="#000000">EventModule</text>
</g>
<!-- EventPage&#45;&gt;EventModule -->
<g id="edge10" class="edge">
<title>EventPage&#45;&gt;EventModule</title>
<path fill="none" stroke="#000000" d="M3788.0845,-122.2228C3788.0845,-122.2228 3788.0845,-143.7269 3788.0845,-143.7269"/>
<polygon fill="#000000" stroke="#000000" points="3784.5846,-143.7269 3788.0845,-153.7269 3791.5846,-143.727 3784.5846,-143.7269"/>
</g>
<!-- EventPageRoutingModule -->
<g id="node15" class="node">
<title>EventPageRoutingModule</title>
<polygon fill="#8dd3c7" stroke="#000000" points="3758.0378,-122 3755.0378,-126 3734.0378,-126 3731.0378,-122 3593.9622,-122 3593.9622,-86 3758.0378,-86 3758.0378,-122"/>
<text text-anchor="middle" x="3676" y="-99.8" font-family="Times,serif" font-size="14.00" fill="#000000">EventPageRoutingModule</text>
</g>
<!-- EventPageRoutingModule&#45;&gt;EventModule -->
<g id="edge11" class="edge">
<title>EventPageRoutingModule&#45;&gt;EventModule</title>
<path fill="none" stroke="#000000" d="M3730.0824,-122.2228C3730.0824,-122.2228 3730.0824,-143.7269 3730.0824,-143.7269"/>
<polygon fill="#000000" stroke="#000000" points="3726.5825,-143.7269 3730.0824,-153.7269 3733.5825,-143.727 3726.5825,-143.7269"/>
</g>
<!-- LeaderboardListPage -->
<g id="node16" class="node">
<title>LeaderboardListPage</title>
<polygon fill="#ffffb3" stroke="#000000" points="1117.7227,-122 982.2773,-122 982.2773,-86 1117.7227,-86 1117.7227,-122"/>
<text text-anchor="middle" x="1050" y="-99.8" font-family="Times,serif" font-size="14.00" fill="#000000">LeaderboardListPage</text>
</g>
<!-- LeaderboardListModule -->
<g id="node17" class="node">
<title>LeaderboardListModule</title>
<polygon fill="#8dd3c7" stroke="#000000" points="922.0604,-190 919.0604,-194 898.0604,-194 895.0604,-190 769.9396,-190 769.9396,-154 922.0604,-154 922.0604,-190"/>
<text text-anchor="middle" x="846" y="-167.8" font-family="Times,serif" font-size="14.00" fill="#000000">LeaderboardListModule</text>
</g>
<!-- LeaderboardListPage&#45;&gt;LeaderboardListModule -->
<g id="edge12" class="edge">
<title>LeaderboardListPage&#45;&gt;LeaderboardListModule</title>
<path fill="none" stroke="#000000" d="M1050,-122.2228C1050,-142.3652 1050,-172 1050,-172 1050,-172 932.2522,-172 932.2522,-172"/>
<polygon fill="#000000" stroke="#000000" points="932.2522,-168.5001 922.2522,-172 932.2521,-175.5001 932.2522,-168.5001"/>
</g>
<!-- LeaderboardListModule&#45;&gt;TabsModule -->
<g id="edge32" class="edge">
<title>LeaderboardListModule&#45;&gt;TabsModule</title>
<path fill="none" stroke="#000000" d="M769.5523,-172C733.5116,-172 698.2963,-172 698.2963,-172 698.2963,-172 698.2963,-208.8939 698.2963,-208.8939"/>
<polygon fill="#000000" stroke="#000000" points="694.7964,-208.8938 698.2963,-218.8939 701.7964,-208.8939 694.7964,-208.8938"/>
</g>
<!-- LeaderboardListPageRoutingModule -->
<g id="node18" class="node">
<title>LeaderboardListPageRoutingModule</title>
<polygon fill="#8dd3c7" stroke="#000000" points="958.3903,-122 955.3903,-126 934.3903,-126 931.3903,-122 733.6097,-122 733.6097,-86 958.3903,-86 958.3903,-122"/>
<text text-anchor="middle" x="846" y="-99.8" font-family="Times,serif" font-size="14.00" fill="#000000">LeaderboardListPageRoutingModule</text>
</g>
<!-- LeaderboardListPageRoutingModule&#45;&gt;LeaderboardListModule -->
<g id="edge13" class="edge">
<title>LeaderboardListPageRoutingModule&#45;&gt;LeaderboardListModule</title>
<path fill="none" stroke="#000000" d="M846,-122.2228C846,-122.2228 846,-143.7269 846,-143.7269"/>
<polygon fill="#000000" stroke="#000000" points="842.5001,-143.7269 846,-153.7269 849.5001,-143.727 842.5001,-143.7269"/>
</g>
<!-- LeaderboardMobPage -->
<g id="node19" class="node">
<title>LeaderboardMobPage</title>
<polygon fill="#ffffb3" stroke="#000000" points="1552.3891,-122 1411.6109,-122 1411.6109,-86 1552.3891,-86 1552.3891,-122"/>
<text text-anchor="middle" x="1482" y="-99.8" font-family="Times,serif" font-size="14.00" fill="#000000">LeaderboardMobPage</text>
</g>
<!-- LeaderboardMobModule -->
<g id="node20" class="node">
<title>LeaderboardMobModule</title>
<polygon fill="#8dd3c7" stroke="#000000" points="1351.2268,-190 1348.2268,-194 1327.2268,-194 1324.2268,-190 1194.7732,-190 1194.7732,-154 1351.2268,-154 1351.2268,-190"/>
<text text-anchor="middle" x="1273" y="-167.8" font-family="Times,serif" font-size="14.00" fill="#000000">LeaderboardMobModule</text>
</g>
<!-- LeaderboardMobPage&#45;&gt;LeaderboardMobModule -->
<g id="edge14" class="edge">
<title>LeaderboardMobPage&#45;&gt;LeaderboardMobModule</title>
<path fill="none" stroke="#000000" d="M1482,-122.2228C1482,-142.3652 1482,-172 1482,-172 1482,-172 1361.4185,-172 1361.4185,-172"/>
<polygon fill="#000000" stroke="#000000" points="1361.4185,-168.5001 1351.4185,-172 1361.4185,-175.5001 1361.4185,-168.5001"/>
</g>
<!-- LeaderboardMobModule&#45;&gt;TabsModule -->
<g id="edge33" class="edge">
<title>LeaderboardMobModule&#45;&gt;TabsModule</title>
<path fill="none" stroke="#000000" d="M1273,-190.2396C1273,-205.5706 1273,-225 1273,-225 1273,-225 712.6651,-225 712.6651,-225"/>
<polygon fill="#000000" stroke="#000000" points="712.6652,-221.5001 702.6651,-225 712.6651,-228.5001 712.6652,-221.5001"/>
</g>
<!-- LeaderboardMobPageRoutingModule -->
<g id="node21" class="node">
<title>LeaderboardMobPageRoutingModule</title>
<polygon fill="#8dd3c7" stroke="#000000" points="1387.5562,-122 1384.5562,-126 1363.5562,-126 1360.5562,-122 1158.4438,-122 1158.4438,-86 1387.5562,-86 1387.5562,-122"/>
<text text-anchor="middle" x="1273" y="-99.8" font-family="Times,serif" font-size="14.00" fill="#000000">LeaderboardMobPageRoutingModule</text>
</g>
<!-- LeaderboardMobPageRoutingModule&#45;&gt;LeaderboardMobModule -->
<g id="edge15" class="edge">
<title>LeaderboardMobPageRoutingModule&#45;&gt;LeaderboardMobModule</title>
<path fill="none" stroke="#000000" d="M1273,-122.2228C1273,-122.2228 1273,-143.7269 1273,-143.7269"/>
<polygon fill="#000000" stroke="#000000" points="1269.5001,-143.7269 1273,-153.7269 1276.5001,-143.727 1269.5001,-143.7269"/>
</g>
<!-- LoginPage -->
<g id="node22" class="node">
<title>LoginPage</title>
<polygon fill="#ffffb3" stroke="#000000" points="4164.1558,-122 4087.8442,-122 4087.8442,-86 4164.1558,-86 4164.1558,-122"/>
<text text-anchor="middle" x="4126" y="-99.8" font-family="Times,serif" font-size="14.00" fill="#000000">LoginPage</text>
</g>
<!-- LoginModule -->
<g id="node23" class="node">
<title>LoginModule</title>
<polygon fill="#8dd3c7" stroke="#000000" points="4099.493,-190 4096.493,-194 4075.493,-194 4072.493,-190 4006.507,-190 4006.507,-154 4099.493,-154 4099.493,-190"/>
<text text-anchor="middle" x="4053" y="-167.8" font-family="Times,serif" font-size="14.00" fill="#000000">LoginModule</text>
</g>
<!-- LoginPage&#45;&gt;LoginModule -->
<g id="edge16" class="edge">
<title>LoginPage&#45;&gt;LoginModule</title>
<path fill="none" stroke="#000000" d="M4093.5845,-122.2228C4093.5845,-122.2228 4093.5845,-143.7269 4093.5845,-143.7269"/>
<polygon fill="#000000" stroke="#000000" points="4090.0846,-143.7269 4093.5845,-153.7269 4097.0846,-143.727 4090.0846,-143.7269"/>
</g>
<!-- LoginPageRoutingModule -->
<g id="node24" class="node">
<title>LoginPageRoutingModule</title>
<polygon fill="#8dd3c7" stroke="#000000" points="4063.8229,-122 4060.8229,-126 4039.8229,-126 4036.8229,-122 3898.1771,-122 3898.1771,-86 4063.8229,-86 4063.8229,-122"/>
<text text-anchor="middle" x="3981" y="-99.8" font-family="Times,serif" font-size="14.00" fill="#000000">LoginPageRoutingModule</text>
</g>
<!-- LoginPageRoutingModule&#45;&gt;LoginModule -->
<g id="edge17" class="edge">
<title>LoginPageRoutingModule&#45;&gt;LoginModule</title>
<path fill="none" stroke="#000000" d="M4035.0824,-122.2228C4035.0824,-122.2228 4035.0824,-143.7269 4035.0824,-143.7269"/>
<polygon fill="#000000" stroke="#000000" points="4031.5825,-143.7269 4035.0824,-153.7269 4038.5825,-143.727 4031.5825,-143.7269"/>
</g>
<!-- MapPage -->
<g id="node25" class="node">
<title>MapPage</title>
<polygon fill="#ffffb3" stroke="#000000" points="1842.3711,-122 1773.6289,-122 1773.6289,-86 1842.3711,-86 1842.3711,-122"/>
<text text-anchor="middle" x="1808" y="-99.8" font-family="Times,serif" font-size="14.00" fill="#000000">MapPage</text>
</g>
<!-- MapModule -->
<g id="node26" class="node">
<title>MapModule</title>
<polygon fill="#8dd3c7" stroke="#000000" points="1713.7093,-190 1710.7093,-194 1689.7093,-194 1686.7093,-190 1628.2907,-190 1628.2907,-154 1713.7093,-154 1713.7093,-190"/>
<text text-anchor="middle" x="1671" y="-167.8" font-family="Times,serif" font-size="14.00" fill="#000000">MapModule</text>
</g>
<!-- MapPage&#45;&gt;MapModule -->
<g id="edge18" class="edge">
<title>MapPage&#45;&gt;MapModule</title>
<path fill="none" stroke="#000000" d="M1808,-122.2228C1808,-142.3652 1808,-172 1808,-172 1808,-172 1723.9718,-172 1723.9718,-172"/>
<polygon fill="#000000" stroke="#000000" points="1723.9718,-168.5001 1713.9718,-172 1723.9717,-175.5001 1723.9718,-168.5001"/>
</g>
<!-- MapModule&#45;&gt;TabsModule -->
<g id="edge34" class="edge">
<title>MapModule&#45;&gt;TabsModule</title>
<path fill="none" stroke="#000000" d="M1671,-190.0225C1671,-207.3734 1671,-231 1671,-231 1671,-231 712.4844,-231 712.4844,-231"/>
<polygon fill="#000000" stroke="#000000" points="712.4844,-227.5001 702.4844,-231 712.4843,-234.5001 712.4844,-227.5001"/>
</g>
<!-- MapPageRoutingModule -->
<g id="node27" class="node">
<title>MapPageRoutingModule</title>
<polygon fill="#8dd3c7" stroke="#000000" points="1749.5393,-122 1746.5393,-126 1725.5393,-126 1722.5393,-122 1592.4607,-122 1592.4607,-86 1749.5393,-86 1749.5393,-122"/>
<text text-anchor="middle" x="1671" y="-99.8" font-family="Times,serif" font-size="14.00" fill="#000000">MapPageRoutingModule</text>
</g>
<!-- MapPageRoutingModule&#45;&gt;MapModule -->
<g id="edge19" class="edge">
<title>MapPageRoutingModule&#45;&gt;MapModule</title>
<path fill="none" stroke="#000000" d="M1671,-122.2228C1671,-122.2228 1671,-143.7269 1671,-143.7269"/>
<polygon fill="#000000" stroke="#000000" points="1667.5001,-143.7269 1671,-153.7269 1674.5001,-143.727 1667.5001,-143.7269"/>
</g>
<!-- PlayerDetailPage -->
<g id="node28" class="node">
<title>PlayerDetailPage</title>
<polygon fill="#ffffb3" stroke="#000000" points="2221.6825,-122 2108.3175,-122 2108.3175,-86 2221.6825,-86 2221.6825,-122"/>
<text text-anchor="middle" x="2165" y="-99.8" font-family="Times,serif" font-size="14.00" fill="#000000">PlayerDetailPage</text>
</g>
<!-- PlayerDetailModule -->
<g id="node29" class="node">
<title>PlayerDetailModule</title>
<polygon fill="#8dd3c7" stroke="#000000" points="2047.5213,-190 2044.5213,-194 2023.5213,-194 2020.5213,-190 1918.4787,-190 1918.4787,-154 2047.5213,-154 2047.5213,-190"/>
<text text-anchor="middle" x="1983" y="-167.8" font-family="Times,serif" font-size="14.00" fill="#000000">PlayerDetailModule</text>
</g>
<!-- PlayerDetailPage&#45;&gt;PlayerDetailModule -->
<g id="edge20" class="edge">
<title>PlayerDetailPage&#45;&gt;PlayerDetailModule</title>
<path fill="none" stroke="#000000" d="M2165,-122.2228C2165,-142.3652 2165,-172 2165,-172 2165,-172 2057.6788,-172 2057.6788,-172"/>
<polygon fill="#000000" stroke="#000000" points="2057.6789,-168.5001 2047.6788,-172 2057.6788,-175.5001 2057.6789,-168.5001"/>
</g>
<!-- PlayerDetailModule&#45;&gt;TabsModule -->
<g id="edge35" class="edge">
<title>PlayerDetailModule&#45;&gt;TabsModule</title>
<path fill="none" stroke="#000000" d="M1983,-190.1061C1983,-209.3391 1983,-237 1983,-237 1983,-237 712.2991,-237 712.2991,-237"/>
<polygon fill="#000000" stroke="#000000" points="712.2991,-233.5001 702.2991,-237 712.2991,-240.5001 712.2991,-233.5001"/>
</g>
<!-- PlayerDetailPageRoutingModule -->
<g id="node30" class="node">
<title>PlayerDetailPageRoutingModule</title>
<polygon fill="#8dd3c7" stroke="#000000" points="2083.8501,-122 2080.8501,-126 2059.8501,-126 2056.8501,-122 1882.1499,-122 1882.1499,-86 2083.8501,-86 2083.8501,-122"/>
<text text-anchor="middle" x="1983" y="-99.8" font-family="Times,serif" font-size="14.00" fill="#000000">PlayerDetailPageRoutingModule</text>
</g>
<!-- PlayerDetailPageRoutingModule&#45;&gt;PlayerDetailModule -->
<g id="edge21" class="edge">
<title>PlayerDetailPageRoutingModule&#45;&gt;PlayerDetailModule</title>
<path fill="none" stroke="#000000" d="M1983,-122.2228C1983,-122.2228 1983,-143.7269 1983,-143.7269"/>
<polygon fill="#000000" stroke="#000000" points="1979.5001,-143.7269 1983,-153.7269 1986.5001,-143.727 1979.5001,-143.7269"/>
</g>
<!-- ScoreListPage -->
<g id="node31" class="node">
<title>ScoreListPage</title>
<polygon fill="#ffffb3" stroke="#000000" points="2568.3627,-122 2471.6373,-122 2471.6373,-86 2568.3627,-86 2568.3627,-122"/>
<text text-anchor="middle" x="2520" y="-99.8" font-family="Times,serif" font-size="14.00" fill="#000000">ScoreListPage</text>
</g>
<!-- ScoreListModule -->
<g id="node32" class="node">
<title>ScoreListModule</title>
<polygon fill="#8dd3c7" stroke="#000000" points="2411.7008,-190 2408.7008,-194 2387.7008,-194 2384.7008,-190 2298.2992,-190 2298.2992,-154 2411.7008,-154 2411.7008,-190"/>
<text text-anchor="middle" x="2355" y="-167.8" font-family="Times,serif" font-size="14.00" fill="#000000">ScoreListModule</text>
</g>
<!-- ScoreListPage&#45;&gt;ScoreListModule -->
<g id="edge22" class="edge">
<title>ScoreListPage&#45;&gt;ScoreListModule</title>
<path fill="none" stroke="#000000" d="M2520,-122.2228C2520,-142.3652 2520,-172 2520,-172 2520,-172 2421.7836,-172 2421.7836,-172"/>
<polygon fill="#000000" stroke="#000000" points="2421.7837,-168.5001 2411.7836,-172 2421.7836,-175.5001 2421.7837,-168.5001"/>
</g>
<!-- ScoreListModule&#45;&gt;TabsModule -->
<g id="edge36" class="edge">
<title>ScoreListModule&#45;&gt;TabsModule</title>
<path fill="none" stroke="#000000" d="M2355,-190.2843C2355,-211.3211 2355,-243 2355,-243 2355,-243 712.6282,-243 712.6282,-243"/>
<polygon fill="#000000" stroke="#000000" points="712.6282,-239.5001 702.6282,-243 712.6281,-246.5001 712.6282,-239.5001"/>
</g>
<!-- ScoreListPageRoutingModule -->
<g id="node33" class="node">
<title>ScoreListPageRoutingModule</title>
<polygon fill="#8dd3c7" stroke="#000000" points="2447.5308,-122 2444.5308,-126 2423.5308,-126 2420.5308,-122 2262.4692,-122 2262.4692,-86 2447.5308,-86 2447.5308,-122"/>
<text text-anchor="middle" x="2355" y="-99.8" font-family="Times,serif" font-size="14.00" fill="#000000">ScoreListPageRoutingModule</text>
</g>
<!-- ScoreListPageRoutingModule&#45;&gt;ScoreListModule -->
<g id="edge23" class="edge">
<title>ScoreListPageRoutingModule&#45;&gt;ScoreListModule</title>
<path fill="none" stroke="#000000" d="M2355,-122.2228C2355,-122.2228 2355,-143.7269 2355,-143.7269"/>
<polygon fill="#000000" stroke="#000000" points="2351.5001,-143.7269 2355,-153.7269 2358.5001,-143.727 2351.5001,-143.7269"/>
</g>
<!-- ScoreSignPage -->
<g id="node34" class="node">
<title>ScoreSignPage</title>
<polygon fill="#ffffb3" stroke="#000000" points="2922.2577,-122 2821.7423,-122 2821.7423,-86 2922.2577,-86 2922.2577,-122"/>
<text text-anchor="middle" x="2872" y="-99.8" font-family="Times,serif" font-size="14.00" fill="#000000">ScoreSignPage</text>
</g>
<!-- ScoreSignModule -->
<g id="node35" class="node">
<title>ScoreSignModule</title>
<polygon fill="#8dd3c7" stroke="#000000" points="2761.5954,-190 2758.5954,-194 2737.5954,-194 2734.5954,-190 2644.4046,-190 2644.4046,-154 2761.5954,-154 2761.5954,-190"/>
<text text-anchor="middle" x="2703" y="-167.8" font-family="Times,serif" font-size="14.00" fill="#000000">ScoreSignModule</text>
</g>
<!-- ScoreSignPage&#45;&gt;ScoreSignModule -->
<g id="edge24" class="edge">
<title>ScoreSignPage&#45;&gt;ScoreSignModule</title>
<path fill="none" stroke="#000000" d="M2872,-122.2228C2872,-142.3652 2872,-172 2872,-172 2872,-172 2771.6337,-172 2771.6337,-172"/>
<polygon fill="#000000" stroke="#000000" points="2771.6337,-168.5001 2761.6337,-172 2771.6337,-175.5001 2771.6337,-168.5001"/>
</g>
<!-- ScoreSignModule&#45;&gt;TabsModule -->
<g id="edge37" class="edge">
<title>ScoreSignModule&#45;&gt;TabsModule</title>
<path fill="none" stroke="#000000" d="M2703,-190.2479C2703,-213.0179 2703,-249 2703,-249 2703,-249 712.6375,-249 712.6375,-249"/>
<polygon fill="#000000" stroke="#000000" points="712.6375,-245.5001 702.6375,-249 712.6374,-252.5001 712.6375,-245.5001"/>
</g>
<!-- ScoreSignPageRoutingModule -->
<g id="node36" class="node">
<title>ScoreSignPageRoutingModule</title>
<polygon fill="#8dd3c7" stroke="#000000" points="2797.9255,-122 2794.9255,-126 2773.9255,-126 2770.9255,-122 2608.0745,-122 2608.0745,-86 2797.9255,-86 2797.9255,-122"/>
<text text-anchor="middle" x="2703" y="-99.8" font-family="Times,serif" font-size="14.00" fill="#000000">ScoreSignPageRoutingModule</text>
</g>
<!-- ScoreSignPageRoutingModule&#45;&gt;ScoreSignModule -->
<g id="edge25" class="edge">
<title>ScoreSignPageRoutingModule&#45;&gt;ScoreSignModule</title>
<path fill="none" stroke="#000000" d="M2703,-122.2228C2703,-122.2228 2703,-143.7269 2703,-143.7269"/>
<polygon fill="#000000" stroke="#000000" points="2699.5001,-143.7269 2703,-153.7269 2706.5001,-143.727 2699.5001,-143.7269"/>
</g>
<!-- SignupPage -->
<g id="node37" class="node">
<title>SignupPage</title>
<polygon fill="#ffffb3" stroke="#000000" points="4482.3851,-122 4399.6149,-122 4399.6149,-86 4482.3851,-86 4482.3851,-122"/>
<text text-anchor="middle" x="4441" y="-99.8" font-family="Times,serif" font-size="14.00" fill="#000000">SignupPage</text>
</g>
<!-- SignUpModule -->
<g id="node38" class="node">
<title>SignUpModule</title>
<polygon fill="#8dd3c7" stroke="#000000" points="4415.3301,-190 4412.3301,-194 4391.3301,-194 4388.3301,-190 4312.6699,-190 4312.6699,-154 4415.3301,-154 4415.3301,-190"/>
<text text-anchor="middle" x="4364" y="-167.8" font-family="Times,serif" font-size="14.00" fill="#000000">SignUpModule</text>
</g>
<!-- SignupPage&#45;&gt;SignUpModule -->
<g id="edge26" class="edge">
<title>SignupPage&#45;&gt;SignUpModule</title>
<path fill="none" stroke="#000000" d="M4407.3612,-122.2228C4407.3612,-122.2228 4407.3612,-143.7269 4407.3612,-143.7269"/>
<polygon fill="#000000" stroke="#000000" points="4403.8612,-143.7269 4407.3612,-153.7269 4410.8612,-143.727 4403.8612,-143.7269"/>
</g>
<!-- SignupPageRoutingModule -->
<g id="node39" class="node">
<title>SignupPageRoutingModule</title>
<polygon fill="#8dd3c7" stroke="#000000" points="4375.5532,-122 4372.5532,-126 4351.5532,-126 4348.5532,-122 4204.4468,-122 4204.4468,-86 4375.5532,-86 4375.5532,-122"/>
<text text-anchor="middle" x="4290" y="-99.8" font-family="Times,serif" font-size="14.00" fill="#000000">SignupPageRoutingModule</text>
</g>
<!-- SignupPageRoutingModule&#45;&gt;SignUpModule -->
<g id="edge27" class="edge">
<title>SignupPageRoutingModule&#45;&gt;SignUpModule</title>
<path fill="none" stroke="#000000" d="M4344.3057,-122.2228C4344.3057,-122.2228 4344.3057,-143.7269 4344.3057,-143.7269"/>
<polygon fill="#000000" stroke="#000000" points="4340.8058,-143.7269 4344.3057,-153.7269 4347.8058,-143.727 4340.8058,-143.7269"/>
</g>
<!-- SupportPage -->
<g id="node40" class="node">
<title>SupportPage</title>
<polygon fill="#ffffb3" stroke="#000000" points="4809.5468,-122 4722.4532,-122 4722.4532,-86 4809.5468,-86 4809.5468,-122"/>
<text text-anchor="middle" x="4766" y="-99.8" font-family="Times,serif" font-size="14.00" fill="#000000">SupportPage</text>
</g>
<!-- SupportModule -->
<g id="node41" class="node">
<title>SupportModule</title>
<polygon fill="#8dd3c7" stroke="#000000" points="4739.8837,-190 4736.8837,-194 4715.8837,-194 4712.8837,-190 4636.1163,-190 4636.1163,-154 4739.8837,-154 4739.8837,-190"/>
<text text-anchor="middle" x="4688" y="-167.8" font-family="Times,serif" font-size="14.00" fill="#000000">SupportModule</text>
</g>
<!-- SupportPage&#45;&gt;SupportModule -->
<g id="edge28" class="edge">
<title>SupportPage&#45;&gt;SupportModule</title>
<path fill="none" stroke="#000000" d="M4731.0845,-122.2228C4731.0845,-122.2228 4731.0845,-143.7269 4731.0845,-143.7269"/>
<polygon fill="#000000" stroke="#000000" points="4727.5846,-143.7269 4731.0845,-153.7269 4734.5846,-143.727 4727.5846,-143.7269"/>
</g>
<!-- SupportPageRoutingModule -->
<g id="node42" class="node">
<title>SupportPageRoutingModule</title>
<polygon fill="#8dd3c7" stroke="#000000" points="4698.2133,-122 4695.2133,-126 4674.2133,-126 4671.2133,-122 4521.7867,-122 4521.7867,-86 4698.2133,-86 4698.2133,-122"/>
<text text-anchor="middle" x="4610" y="-99.8" font-family="Times,serif" font-size="14.00" fill="#000000">SupportPageRoutingModule</text>
</g>
<!-- SupportPageRoutingModule&#45;&gt;SupportModule -->
<g id="edge29" class="edge">
<title>SupportPageRoutingModule&#45;&gt;SupportModule</title>
<path fill="none" stroke="#000000" d="M4667.0824,-122.2228C4667.0824,-122.2228 4667.0824,-143.7269 4667.0824,-143.7269"/>
<polygon fill="#000000" stroke="#000000" points="4663.5825,-143.7269 4667.0824,-153.7269 4670.5825,-143.727 4663.5825,-143.7269"/>
</g>
<!-- TabsPage -->
<g id="node43" class="node">
<title>TabsPage</title>
<polygon fill="#ffffb3" stroke="#000000" points="694.4249,-190 623.5751,-190 623.5751,-154 694.4249,-154 694.4249,-190"/>
<text text-anchor="middle" x="659" y="-167.8" font-family="Times,serif" font-size="14.00" fill="#000000">TabsPage</text>
</g>
<!-- TabsPage&#45;&gt;TabsModule -->
<g id="edge30" class="edge">
<title>TabsPage&#45;&gt;TabsModule</title>
<path fill="none" stroke="#000000" d="M659,-190.1061C659,-190.1061 659,-208.991 659,-208.991"/>
<polygon fill="#000000" stroke="#000000" points="655.5001,-208.9909 659,-218.991 662.5001,-208.991 655.5001,-208.9909"/>
</g>
<!-- TabsPageRoutingModule -->
<g id="node45" class="node">
<title>TabsPageRoutingModule</title>
<polygon fill="#8dd3c7" stroke="#000000" points="599.5912,-190 596.5912,-194 575.5912,-194 572.5912,-190 440.4088,-190 440.4088,-154 599.5912,-154 599.5912,-190"/>
<text text-anchor="middle" x="520" y="-167.8" font-family="Times,serif" font-size="14.00" fill="#000000">TabsPageRoutingModule</text>
</g>
<!-- TabsPageRoutingModule&#45;&gt;TabsModule -->
<g id="edge38" class="edge">
<title>TabsPageRoutingModule&#45;&gt;TabsModule</title>
<path fill="none" stroke="#000000" d="M600.0055,-172C611.5964,-172 619.7037,-172 619.7037,-172 619.7037,-172 619.7037,-208.8939 619.7037,-208.8939"/>
<polygon fill="#000000" stroke="#000000" points="616.2038,-208.8938 619.7037,-218.8939 623.2038,-208.8939 616.2038,-208.8938"/>
</g>
<!-- TutorialPage -->
<g id="node46" class="node">
<title>TutorialPage</title>
<polygon fill="#ffffb3" stroke="#000000" points="5138.312,-122 5049.688,-122 5049.688,-86 5138.312,-86 5138.312,-122"/>
<text text-anchor="middle" x="5094" y="-99.8" font-family="Times,serif" font-size="14.00" fill="#000000">TutorialPage</text>
</g>
<!-- TutorialModule -->
<g id="node47" class="node">
<title>TutorialModule</title>
<polygon fill="#8dd3c7" stroke="#000000" points="5068.15,-190 5065.15,-194 5044.15,-194 5041.15,-190 4963.85,-190 4963.85,-154 5068.15,-154 5068.15,-190"/>
<text text-anchor="middle" x="5016" y="-167.8" font-family="Times,serif" font-size="14.00" fill="#000000">TutorialModule</text>
</g>
<!-- TutorialPage&#45;&gt;TutorialModule -->
<g id="edge39" class="edge">
<title>TutorialPage&#45;&gt;TutorialModule</title>
<path fill="none" stroke="#000000" d="M5059.0845,-122.2228C5059.0845,-122.2228 5059.0845,-143.7269 5059.0845,-143.7269"/>
<polygon fill="#000000" stroke="#000000" points="5055.5846,-143.7269 5059.0845,-153.7269 5062.5846,-143.727 5055.5846,-143.7269"/>
</g>
<!-- TutorialPageRoutingModule -->
<g id="node48" class="node">
<title>TutorialPageRoutingModule</title>
<polygon fill="#8dd3c7" stroke="#000000" points="5026.479,-122 5023.479,-126 5002.479,-126 4999.479,-122 4849.521,-122 4849.521,-86 5026.479,-86 5026.479,-122"/>
<text text-anchor="middle" x="4938" y="-99.8" font-family="Times,serif" font-size="14.00" fill="#000000">TutorialPageRoutingModule</text>
</g>
<!-- TutorialPageRoutingModule&#45;&gt;TutorialModule -->
<g id="edge40" class="edge">
<title>TutorialPageRoutingModule&#45;&gt;TutorialModule</title>
<path fill="none" stroke="#000000" d="M4995.0824,-122.2228C4995.0824,-122.2228 4995.0824,-143.7269 4995.0824,-143.7269"/>
<polygon fill="#000000" stroke="#000000" points="4991.5825,-143.7269 4995.0824,-153.7269 4998.5825,-143.727 4991.5825,-143.7269"/>
</g>
</g>
</svg>
